<svg width="38" height="38" viewBox="0 0 38 38" fill="none" xmlns="http://www.w3.org/2000/svg">
<path d="M0 26.7946C0 32.9812 5.01838 37.9996 11.205 37.9996H26.7946C32.9812 37.9996 37.9996 32.9812 37.9996 26.7946V11.205C37.9996 5.01838 32.9812 0 26.7946 0H11.205C5.01838 0 0 5.01838 0 11.205V26.7946ZM29.2305 6.82044C30.5949 6.82044 31.6663 7.89183 31.6663 9.25631C31.6663 10.6208 30.5949 11.6922 29.2305 11.6922C27.866 11.6922 26.7946 10.6208 26.7946 9.25631C26.7946 7.89183 27.866 6.82044 29.2305 6.82044ZM18.9998 9.74349C24.1151 9.74349 28.2561 13.8845 28.2561 18.9998C28.2561 24.1151 24.1151 28.2561 18.9998 28.2561C13.8845 28.2561 9.74349 24.1151 9.74349 18.9998C9.74349 13.8845 13.8845 9.74349 18.9998 9.74349Z" fill="black"/>
</svg>
