<svg width="308" height="48" viewBox="0 0 308 48" fill="none" xmlns="http://www.w3.org/2000/svg">
<g filter="url(#filter0_d_78_12)">
<path d="M22.4644 10.2802C22.4644 8.6002 21.944 7.26686 20.9034 6.2802C19.8628 5.29353 18.1612 4.8002 15.7987 4.8002H8.79565V15.7602H15.8409C17.3878 15.7602 18.6394 15.5335 19.5956 15.0802C20.58 14.6269 21.2972 13.9869 21.7472 13.1602C22.2253 12.3335 22.4644 11.3735 22.4644 10.2802ZM15.7987 2.0002C18.105 2.0002 19.9894 2.37353 21.4519 3.1202C22.9425 3.86686 24.0534 4.86686 24.7847 6.1202C25.5159 7.34686 25.8815 8.73353 25.8815 10.2802C25.8815 11.3735 25.6847 12.4135 25.2909 13.4002C24.9253 14.3869 24.3347 15.2669 23.519 16.0402C22.7034 16.8135 21.6628 17.4269 20.3972 17.8802C19.1315 18.3335 17.6128 18.5602 15.8409 18.5602H8.79565V30.0002H5.42065V2.0002H15.7987ZM18.2456 17.3602L26.43 30.0002H22.5909L14.6175 17.3602H18.2456ZM40.3097 30.2802C38.3409 30.2802 36.5831 29.8269 35.0362 28.9202C33.5175 28.0135 32.3222 26.7735 31.4503 25.2002C30.5784 23.6269 30.1425 21.8269 30.1425 19.8002C30.1425 17.8535 30.5784 16.1202 31.4503 14.6002C32.3222 13.0802 33.5175 11.8935 35.0362 11.0402C36.555 10.1602 38.2847 9.7202 40.2253 9.7202C42.1378 9.7202 43.8394 10.1202 45.33 10.9202C46.8487 11.7202 48.03 12.8269 48.8737 14.2402C49.7175 15.6535 50.1112 17.2669 50.055 19.0802C50.055 19.3735 50.0409 19.6802 50.0128 20.0002C49.9847 20.3202 49.9565 20.6669 49.9284 21.0402H33.6019C33.6581 22.2935 33.9815 23.4002 34.5722 24.3602C35.1628 25.3202 35.9362 26.0802 36.8925 26.6402C37.8769 27.1735 38.9878 27.4402 40.2253 27.4402C41.8565 27.4402 43.2347 27.1469 44.3597 26.5602C45.5128 25.9735 46.3425 25.1335 46.8487 24.0402L49.5909 25.0802C48.7472 26.7602 47.5237 28.0535 45.9206 28.9602C44.3175 29.8402 42.4472 30.2802 40.3097 30.2802ZM46.5956 18.4402C46.6237 17.2935 46.3565 16.2802 45.794 15.4002C45.2597 14.5202 44.5003 13.8269 43.5159 13.3202C42.5315 12.8135 41.3925 12.5602 40.0987 12.5602C38.9737 12.5602 37.9472 12.8135 37.019 13.3202C36.0909 13.8269 35.3175 14.5335 34.6987 15.4402C34.1081 16.3202 33.7565 17.3202 33.644 18.4402H46.5956ZM71.5476 14.0402L71.2101 14.0802V1.2002H74.3742V30.0002H71.4633L71.2523 26.2802C70.6054 27.4002 69.6351 28.3469 68.3414 29.1202C67.0758 29.8935 65.5008 30.2802 63.6164 30.2802C61.6758 30.2802 59.9742 29.8669 58.5117 29.0402C57.0773 28.1869 55.9523 26.9869 55.1367 25.4402C54.3492 23.8935 53.9554 22.0802 53.9554 20.0002C53.9554 17.9202 54.3492 16.1202 55.1367 14.6002C55.9523 13.0535 57.0773 11.8535 58.5117 11.0002C59.9742 10.1469 61.6758 9.7202 63.6164 9.7202C65.6133 9.7202 67.2726 10.1335 68.5945 10.9602C69.9164 11.7869 70.9008 12.8135 71.5476 14.0402ZM57.3726 20.0002C57.3726 22.2935 57.9914 24.1202 59.2289 25.4802C60.4664 26.8135 62.1539 27.4802 64.2914 27.4802C65.6133 27.4802 66.7945 27.1869 67.8351 26.6002C68.8758 26.0135 69.6914 25.1602 70.282 24.0402C70.9008 22.9202 71.2101 21.5735 71.2101 20.0002C71.2101 18.4269 70.9008 17.0935 70.282 16.0002C69.6914 14.8802 68.8758 14.0269 67.8351 13.4402C66.7945 12.8269 65.6133 12.5202 64.2914 12.5202C62.182 12.5202 60.4945 13.2002 59.2289 14.5602C57.9914 15.8935 57.3726 17.7069 57.3726 20.0002ZM94.6544 22.8802C94.8232 23.6002 95.1747 24.3202 95.7091 25.0402C96.2716 25.7335 97.031 26.3202 97.9872 26.8002C98.9716 27.2535 100.223 27.4802 101.742 27.4802C103.908 27.4802 105.511 27.0002 106.551 26.0402C107.592 25.0802 108.112 23.9469 108.112 22.6402C108.112 21.6002 107.817 20.7469 107.226 20.0802C106.636 19.4135 105.834 18.8669 104.822 18.4402C103.809 17.9869 102.67 17.5869 101.404 17.2402C100.279 16.9469 99.1544 16.6269 98.0294 16.2802C96.9326 15.9069 95.9341 15.4535 95.0341 14.9202C94.1341 14.3602 93.4169 13.6402 92.8825 12.7602C92.3482 11.8802 92.081 10.7869 92.081 9.4802C92.081 7.90686 92.4747 6.54686 93.2622 5.4002C94.0497 4.22686 95.1607 3.3202 96.5951 2.6802C98.0294 2.0402 99.7029 1.7202 101.615 1.7202C103.275 1.7202 104.723 1.94686 105.961 2.4002C107.198 2.85353 108.225 3.49353 109.04 4.3202C109.884 5.1202 110.503 6.05353 110.897 7.1202L107.901 8.2002C107.704 7.58686 107.325 7.0002 106.762 6.4402C106.2 5.85353 105.468 5.37353 104.568 5.0002C103.668 4.62686 102.642 4.4402 101.489 4.4402C100.364 4.4402 99.3372 4.62686 98.4091 5.0002C97.5091 5.37353 96.7919 5.90686 96.2576 6.6002C95.7232 7.29353 95.456 8.13353 95.456 9.1202C95.456 10.1869 95.7654 11.0402 96.3841 11.6802C97.031 12.2935 97.8747 12.8002 98.9154 13.2002C99.9841 13.5735 101.151 13.9335 102.417 14.2802C103.57 14.6269 104.681 15.0002 105.75 15.4002C106.847 15.8002 107.817 16.2935 108.661 16.8802C109.533 17.4669 110.222 18.2002 110.728 19.0802C111.234 19.9602 111.487 21.0402 111.487 22.3202C111.487 23.7335 111.136 25.0535 110.433 26.2802C109.729 27.4802 108.661 28.4535 107.226 29.2002C105.82 29.9202 104.006 30.2802 101.784 30.2802C99.9279 30.2802 98.2966 30.0135 96.8904 29.4802C95.4841 28.9202 94.331 28.1735 93.431 27.2402C92.531 26.3069 91.9122 25.2402 91.5747 24.0402L94.6544 22.8802ZM126.009 30.2802C124.012 30.2802 122.226 29.8669 120.651 29.0402C119.076 28.2135 117.838 27.0402 116.938 25.5202C116.039 23.9735 115.589 22.1469 115.589 20.0402C115.589 17.9069 116.039 16.0669 116.938 14.5202C117.866 12.9735 119.118 11.7869 120.693 10.9602C122.296 10.1335 124.096 9.7202 126.093 9.7202C128.09 9.7202 129.876 10.1335 131.451 10.9602C133.054 11.7869 134.305 12.9735 135.205 14.5202C136.134 16.0402 136.598 17.8535 136.598 19.9602C136.598 22.0935 136.134 23.9335 135.205 25.4802C134.277 27.0269 133.012 28.2135 131.409 29.0402C129.805 29.8669 128.005 30.2802 126.009 30.2802ZM125.966 27.4402C127.204 27.4402 128.371 27.1869 129.468 26.6802C130.565 26.1469 131.451 25.3335 132.126 24.2402C132.829 23.1202 133.18 21.7069 133.18 20.0002C133.18 18.2669 132.843 16.8535 132.168 15.7602C131.493 14.6669 130.607 13.8669 129.51 13.3602C128.441 12.8269 127.288 12.5602 126.051 12.5602C124.813 12.5602 123.66 12.8269 122.591 13.3602C121.523 13.8669 120.651 14.6802 119.976 15.8002C119.329 16.8935 119.005 18.2935 119.005 20.0002C119.005 21.7335 119.329 23.1469 119.976 24.2402C120.623 25.3335 121.466 26.1469 122.507 26.6802C123.576 27.1869 124.729 27.4402 125.966 27.4402ZM142.414 10.0002H145.535V30.0002H142.414V10.0002ZM144.017 6.0002C143.37 6.0002 142.835 5.8002 142.414 5.4002C141.992 5.0002 141.781 4.50686 141.781 3.9202C141.781 3.30686 141.992 2.8002 142.414 2.4002C142.835 2.0002 143.37 1.8002 144.017 1.8002C144.607 1.8002 145.114 2.0002 145.535 2.4002C145.985 2.8002 146.21 3.30686 146.21 3.9202C146.21 4.50686 145.985 5.0002 145.535 5.4002C145.114 5.8002 144.607 6.0002 144.017 6.0002ZM152.657 1.2002H155.821V30.0002H152.657V1.2002ZM177.792 30.0002H174.418V2.0002H178.13L189.099 25.6002L200.025 2.0002H203.696V30.0002H200.321V8.3202L190.28 30.0002H187.875L177.792 8.3202V30.0002ZM223.746 30.0002L223.493 26.4002C222.903 27.6269 222.031 28.5869 220.878 29.2802C219.725 29.9469 218.262 30.2802 216.49 30.2802C214.971 30.2802 213.678 30.0535 212.609 29.6002C211.54 29.1469 210.71 28.5069 210.12 27.6802C209.557 26.8269 209.276 25.8269 209.276 24.6802C209.276 23.0002 209.937 21.6269 211.259 20.5602C212.581 19.4669 214.493 18.8002 216.996 18.5602L223.493 17.8802V16.2802C223.493 15.1602 223.057 14.2669 222.185 13.6002C221.314 12.9069 220.132 12.5602 218.642 12.5602C217.179 12.5602 215.956 12.8802 214.971 13.5202C214.015 14.1602 213.354 15.0802 212.989 16.2802L210.12 15.3202C210.682 13.5602 211.709 12.1869 213.2 11.2002C214.718 10.2135 216.56 9.7202 218.726 9.7202C221.229 9.7202 223.17 10.3335 224.548 11.5602C225.954 12.7602 226.657 14.4002 226.657 16.4802V30.0002H223.746ZM223.493 20.4402L216.954 21.1602C215.548 21.3202 214.479 21.6935 213.748 22.2802C213.017 22.8402 212.651 23.5869 212.651 24.5202C212.651 25.4535 213.003 26.2002 213.706 26.7602C214.437 27.3202 215.478 27.6002 216.828 27.6002C218.375 27.6002 219.64 27.3069 220.625 26.7202C221.609 26.1335 222.326 25.3469 222.776 24.3602C223.254 23.3469 223.493 22.2535 223.493 21.0802V20.4402ZM232.83 10.0002H235.741L235.909 12.8402C236.584 11.8535 237.47 11.0935 238.567 10.5602C239.664 10.0002 240.944 9.7202 242.406 9.7202C244.009 9.7202 245.416 10.0535 246.625 10.7202C247.834 11.3602 248.776 12.3335 249.451 13.6402C250.126 14.9202 250.464 16.5335 250.464 18.4802V30.0002H247.3V18.8402C247.3 16.7602 246.822 15.1869 245.866 14.1202C244.937 13.0269 243.587 12.4802 241.816 12.4802C239.987 12.4802 238.553 13.0535 237.512 14.2002C236.5 15.3469 235.994 17.0402 235.994 19.2802V30.0002H232.83V10.0002ZM272.801 10.0002H275.712V26.3202C275.712 28.7735 275.135 30.8669 273.982 32.6002C272.829 34.3602 271.156 35.6935 268.962 36.6002C266.768 37.5335 264.096 38.0002 260.946 38.0002L260.44 35.2402C264.406 35.1869 267.415 34.4002 269.468 32.8802C271.521 31.3869 272.548 29.2002 272.548 26.3202V25.8802L272.885 25.9602C272.239 27.1335 271.268 28.1469 269.975 29.0002C268.681 29.8269 267.007 30.2535 264.954 30.2802C263.014 30.2802 261.312 29.8669 259.85 29.0402C258.415 28.1869 257.29 26.9869 256.475 25.4402C255.687 23.8935 255.293 22.0802 255.293 20.0002C255.293 17.9202 255.687 16.1202 256.475 14.6002C257.29 13.0535 258.415 11.8535 259.85 11.0002C261.312 10.1469 263.014 9.7202 264.954 9.7202C266.22 9.7202 267.345 9.90686 268.329 10.2802C269.314 10.6269 270.157 11.1069 270.86 11.7202C271.564 12.3069 272.14 12.9735 272.59 13.7202L272.801 10.0002ZM258.71 20.0002C258.71 22.2935 259.329 24.1202 260.567 25.4802C261.832 26.8135 263.534 27.4802 265.671 27.4802C266.965 27.4802 268.132 27.1869 269.173 26.6002C270.214 26.0135 271.029 25.1602 271.62 24.0402C272.239 22.9202 272.548 21.5735 272.548 20.0002C272.548 18.4269 272.239 17.0935 271.62 16.0002C271.029 14.8802 270.214 14.0269 269.173 13.4402C268.132 12.8269 266.965 12.5202 265.671 12.5202C263.562 12.5202 261.875 13.2002 260.609 14.5602C259.343 15.9202 258.71 17.7335 258.71 20.0002ZM291.298 30.2802C289.301 30.2802 287.515 29.8669 285.94 29.0402C284.365 28.2135 283.128 27.0402 282.228 25.5202C281.328 23.9735 280.878 22.1469 280.878 20.0402C280.878 17.9069 281.328 16.0669 282.228 14.5202C283.156 12.9735 284.407 11.7869 285.982 10.9602C287.585 10.1335 289.385 9.7202 291.382 9.7202C293.379 9.7202 295.165 10.1335 296.74 10.9602C298.343 11.7869 299.595 12.9735 300.495 14.5202C301.423 16.0402 301.887 17.8535 301.887 19.9602C301.887 22.0935 301.423 23.9335 300.495 25.4802C299.567 27.0269 298.301 28.2135 296.698 29.0402C295.095 29.8669 293.295 30.2802 291.298 30.2802ZM291.256 27.4402C292.493 27.4402 293.66 27.1869 294.757 26.6802C295.854 26.1469 296.74 25.3335 297.415 24.2402C298.118 23.1202 298.47 21.7069 298.47 20.0002C298.47 18.2669 298.132 16.8535 297.457 15.7602C296.782 14.6669 295.896 13.8669 294.8 13.3602C293.731 12.8269 292.578 12.5602 291.34 12.5602C290.103 12.5602 288.95 12.8269 287.881 13.3602C286.812 13.8669 285.94 14.6802 285.265 15.8002C284.618 16.8935 284.295 18.2935 284.295 20.0002C284.295 21.7335 284.618 23.1469 285.265 24.2402C285.912 25.3335 286.756 26.1469 287.796 26.6802C288.865 27.1869 290.018 27.4402 291.256 27.4402Z" fill="black"/>
<mask id="mask0_78_12" style="mask-type:luminance" maskUnits="userSpaceOnUse" x="4" y="0" width="300" height="40">
<path d="M304 0H4V40H304V0Z" fill="white"/>
<path d="M22.4644 10.2802C22.4644 8.6002 21.944 7.26686 20.9034 6.2802C19.8628 5.29353 18.1612 4.8002 15.7987 4.8002H8.79565V15.7602H15.8409C17.3878 15.7602 18.6394 15.5335 19.5956 15.0802C20.58 14.6269 21.2972 13.9869 21.7472 13.1602C22.2253 12.3335 22.4644 11.3735 22.4644 10.2802ZM15.7987 2.0002C18.105 2.0002 19.9894 2.37353 21.4519 3.1202C22.9425 3.86686 24.0534 4.86686 24.7847 6.1202C25.5159 7.34686 25.8815 8.73353 25.8815 10.2802C25.8815 11.3735 25.6847 12.4135 25.2909 13.4002C24.9253 14.3869 24.3347 15.2669 23.519 16.0402C22.7034 16.8135 21.6628 17.4269 20.3972 17.8802C19.1315 18.3335 17.6128 18.5602 15.8409 18.5602H8.79565V30.0002H5.42065V2.0002H15.7987ZM18.2456 17.3602L26.43 30.0002H22.5909L14.6175 17.3602H18.2456ZM40.3097 30.2802C38.3409 30.2802 36.5831 29.8269 35.0362 28.9202C33.5175 28.0135 32.3222 26.7735 31.4503 25.2002C30.5784 23.6269 30.1425 21.8269 30.1425 19.8002C30.1425 17.8535 30.5784 16.1202 31.4503 14.6002C32.3222 13.0802 33.5175 11.8935 35.0362 11.0402C36.555 10.1602 38.2847 9.7202 40.2253 9.7202C42.1378 9.7202 43.8394 10.1202 45.33 10.9202C46.8487 11.7202 48.03 12.8269 48.8737 14.2402C49.7175 15.6535 50.1112 17.2669 50.055 19.0802C50.055 19.3735 50.0409 19.6802 50.0128 20.0002C49.9847 20.3202 49.9565 20.6669 49.9284 21.0402H33.6019C33.6581 22.2935 33.9815 23.4002 34.5722 24.3602C35.1628 25.3202 35.9362 26.0802 36.8925 26.6402C37.8769 27.1735 38.9878 27.4402 40.2253 27.4402C41.8565 27.4402 43.2347 27.1469 44.3597 26.5602C45.5128 25.9735 46.3425 25.1335 46.8487 24.0402L49.5909 25.0802C48.7472 26.7602 47.5237 28.0535 45.9206 28.9602C44.3175 29.8402 42.4472 30.2802 40.3097 30.2802ZM46.5956 18.4402C46.6237 17.2935 46.3565 16.2802 45.794 15.4002C45.2597 14.5202 44.5003 13.8269 43.5159 13.3202C42.5315 12.8135 41.3925 12.5602 40.0987 12.5602C38.9737 12.5602 37.9472 12.8135 37.019 13.3202C36.0909 13.8269 35.3175 14.5335 34.6987 15.4402C34.1081 16.3202 33.7565 17.3202 33.644 18.4402H46.5956ZM71.5476 14.0402L71.2101 14.0802V1.2002H74.3742V30.0002H71.4633L71.2523 26.2802C70.6054 27.4002 69.6351 28.3469 68.3414 29.1202C67.0758 29.8935 65.5008 30.2802 63.6164 30.2802C61.6758 30.2802 59.9742 29.8669 58.5117 29.0402C57.0773 28.1869 55.9523 26.9869 55.1367 25.4402C54.3492 23.8935 53.9554 22.0802 53.9554 20.0002C53.9554 17.9202 54.3492 16.1202 55.1367 14.6002C55.9523 13.0535 57.0773 11.8535 58.5117 11.0002C59.9742 10.1469 61.6758 9.7202 63.6164 9.7202C65.6133 9.7202 67.2726 10.1335 68.5945 10.9602C69.9164 11.7869 70.9008 12.8135 71.5476 14.0402ZM57.3726 20.0002C57.3726 22.2935 57.9914 24.1202 59.2289 25.4802C60.4664 26.8135 62.1539 27.4802 64.2914 27.4802C65.6133 27.4802 66.7945 27.1869 67.8351 26.6002C68.8758 26.0135 69.6914 25.1602 70.282 24.0402C70.9008 22.9202 71.2101 21.5735 71.2101 20.0002C71.2101 18.4269 70.9008 17.0935 70.282 16.0002C69.6914 14.8802 68.8758 14.0269 67.8351 13.4402C66.7945 12.8269 65.6133 12.5202 64.2914 12.5202C62.182 12.5202 60.4945 13.2002 59.2289 14.5602C57.9914 15.8935 57.3726 17.7069 57.3726 20.0002ZM94.6544 22.8802C94.8232 23.6002 95.1747 24.3202 95.7091 25.0402C96.2716 25.7335 97.031 26.3202 97.9872 26.8002C98.9716 27.2535 100.223 27.4802 101.742 27.4802C103.908 27.4802 105.511 27.0002 106.551 26.0402C107.592 25.0802 108.112 23.9469 108.112 22.6402C108.112 21.6002 107.817 20.7469 107.226 20.0802C106.636 19.4135 105.834 18.8669 104.822 18.4402C103.809 17.9869 102.67 17.5869 101.404 17.2402C100.279 16.9469 99.1544 16.6269 98.0294 16.2802C96.9326 15.9069 95.9341 15.4535 95.0341 14.9202C94.1341 14.3602 93.4169 13.6402 92.8825 12.7602C92.3482 11.8802 92.081 10.7869 92.081 9.4802C92.081 7.90686 92.4747 6.54686 93.2622 5.4002C94.0497 4.22686 95.1607 3.3202 96.5951 2.6802C98.0294 2.0402 99.7029 1.7202 101.615 1.7202C103.275 1.7202 104.723 1.94686 105.961 2.4002C107.198 2.85353 108.225 3.49353 109.04 4.3202C109.884 5.1202 110.503 6.05353 110.897 7.1202L107.901 8.2002C107.704 7.58686 107.325 7.0002 106.762 6.4402C106.2 5.85353 105.468 5.37353 104.568 5.0002C103.668 4.62686 102.642 4.4402 101.489 4.4402C100.364 4.4402 99.3372 4.62686 98.4091 5.0002C97.5091 5.37353 96.7919 5.90686 96.2576 6.6002C95.7232 7.29353 95.456 8.13353 95.456 9.1202C95.456 10.1869 95.7654 11.0402 96.3841 11.6802C97.031 12.2935 97.8747 12.8002 98.9154 13.2002C99.9841 13.5735 101.151 13.9335 102.417 14.2802C103.57 14.6269 104.681 15.0002 105.75 15.4002C106.847 15.8002 107.817 16.2935 108.661 16.8802C109.533 17.4669 110.222 18.2002 110.728 19.0802C111.234 19.9602 111.487 21.0402 111.487 22.3202C111.487 23.7335 111.136 25.0535 110.433 26.2802C109.729 27.4802 108.661 28.4535 107.226 29.2002C105.82 29.9202 104.006 30.2802 101.784 30.2802C99.9279 30.2802 98.2966 30.0135 96.8904 29.4802C95.4841 28.9202 94.331 28.1735 93.431 27.2402C92.531 26.3069 91.9122 25.2402 91.5747 24.0402L94.6544 22.8802ZM126.009 30.2802C124.012 30.2802 122.226 29.8669 120.651 29.0402C119.076 28.2135 117.838 27.0402 116.938 25.5202C116.039 23.9735 115.589 22.1469 115.589 20.0402C115.589 17.9069 116.039 16.0669 116.938 14.5202C117.866 12.9735 119.118 11.7869 120.693 10.9602C122.296 10.1335 124.096 9.7202 126.093 9.7202C128.09 9.7202 129.876 10.1335 131.451 10.9602C133.054 11.7869 134.305 12.9735 135.205 14.5202C136.134 16.0402 136.598 17.8535 136.598 19.9602C136.598 22.0935 136.134 23.9335 135.205 25.4802C134.277 27.0269 133.012 28.2135 131.409 29.0402C129.805 29.8669 128.005 30.2802 126.009 30.2802ZM125.966 27.4402C127.204 27.4402 128.371 27.1869 129.468 26.6802C130.565 26.1469 131.451 25.3335 132.126 24.2402C132.829 23.1202 133.18 21.7069 133.18 20.0002C133.18 18.2669 132.843 16.8535 132.168 15.7602C131.493 14.6669 130.607 13.8669 129.51 13.3602C128.441 12.8269 127.288 12.5602 126.051 12.5602C124.813 12.5602 123.66 12.8269 122.591 13.3602C121.523 13.8669 120.651 14.6802 119.976 15.8002C119.329 16.8935 119.005 18.2935 119.005 20.0002C119.005 21.7335 119.329 23.1469 119.976 24.2402C120.623 25.3335 121.466 26.1469 122.507 26.6802C123.576 27.1869 124.729 27.4402 125.966 27.4402ZM142.414 10.0002H145.535V30.0002H142.414V10.0002ZM144.017 6.0002C143.37 6.0002 142.835 5.8002 142.414 5.4002C141.992 5.0002 141.781 4.50686 141.781 3.9202C141.781 3.30686 141.992 2.8002 142.414 2.4002C142.835 2.0002 143.37 1.8002 144.017 1.8002C144.607 1.8002 145.114 2.0002 145.535 2.4002C145.985 2.8002 146.21 3.30686 146.21 3.9202C146.21 4.50686 145.985 5.0002 145.535 5.4002C145.114 5.8002 144.607 6.0002 144.017 6.0002ZM152.657 1.2002H155.821V30.0002H152.657V1.2002ZM177.792 30.0002H174.418V2.0002H178.13L189.099 25.6002L200.025 2.0002H203.696V30.0002H200.321V8.3202L190.28 30.0002H187.875L177.792 8.3202V30.0002ZM223.746 30.0002L223.493 26.4002C222.903 27.6269 222.031 28.5869 220.878 29.2802C219.725 29.9469 218.262 30.2802 216.49 30.2802C214.971 30.2802 213.678 30.0535 212.609 29.6002C211.54 29.1469 210.71 28.5069 210.12 27.6802C209.557 26.8269 209.276 25.8269 209.276 24.6802C209.276 23.0002 209.937 21.6269 211.259 20.5602C212.581 19.4669 214.493 18.8002 216.996 18.5602L223.493 17.8802V16.2802C223.493 15.1602 223.057 14.2669 222.185 13.6002C221.314 12.9069 220.132 12.5602 218.642 12.5602C217.179 12.5602 215.956 12.8802 214.971 13.5202C214.015 14.1602 213.354 15.0802 212.989 16.2802L210.12 15.3202C210.682 13.5602 211.709 12.1869 213.2 11.2002C214.718 10.2135 216.56 9.7202 218.726 9.7202C221.229 9.7202 223.17 10.3335 224.548 11.5602C225.954 12.7602 226.657 14.4002 226.657 16.4802V30.0002H223.746ZM223.493 20.4402L216.954 21.1602C215.548 21.3202 214.479 21.6935 213.748 22.2802C213.017 22.8402 212.651 23.5869 212.651 24.5202C212.651 25.4535 213.003 26.2002 213.706 26.7602C214.437 27.3202 215.478 27.6002 216.828 27.6002C218.375 27.6002 219.64 27.3069 220.625 26.7202C221.609 26.1335 222.326 25.3469 222.776 24.3602C223.254 23.3469 223.493 22.2535 223.493 21.0802V20.4402ZM232.83 10.0002H235.741L235.909 12.8402C236.584 11.8535 237.47 11.0935 238.567 10.5602C239.664 10.0002 240.944 9.7202 242.406 9.7202C244.009 9.7202 245.416 10.0535 246.625 10.7202C247.834 11.3602 248.776 12.3335 249.451 13.6402C250.126 14.9202 250.464 16.5335 250.464 18.4802V30.0002H247.3V18.8402C247.3 16.7602 246.822 15.1869 245.866 14.1202C244.937 13.0269 243.587 12.4802 241.816 12.4802C239.987 12.4802 238.553 13.0535 237.512 14.2002C236.5 15.3469 235.994 17.0402 235.994 19.2802V30.0002H232.83V10.0002ZM272.801 10.0002H275.712V26.3202C275.712 28.7735 275.135 30.8669 273.982 32.6002C272.829 34.3602 271.156 35.6935 268.962 36.6002C266.768 37.5335 264.096 38.0002 260.946 38.0002L260.44 35.2402C264.406 35.1869 267.415 34.4002 269.468 32.8802C271.521 31.3869 272.548 29.2002 272.548 26.3202V25.8802L272.885 25.9602C272.239 27.1335 271.268 28.1469 269.975 29.0002C268.681 29.8269 267.007 30.2535 264.954 30.2802C263.014 30.2802 261.312 29.8669 259.85 29.0402C258.415 28.1869 257.29 26.9869 256.475 25.4402C255.687 23.8935 255.293 22.0802 255.293 20.0002C255.293 17.9202 255.687 16.1202 256.475 14.6002C257.29 13.0535 258.415 11.8535 259.85 11.0002C261.312 10.1469 263.014 9.7202 264.954 9.7202C266.22 9.7202 267.345 9.90686 268.329 10.2802C269.314 10.6269 270.157 11.1069 270.86 11.7202C271.564 12.3069 272.14 12.9735 272.59 13.7202L272.801 10.0002ZM258.71 20.0002C258.71 22.2935 259.329 24.1202 260.567 25.4802C261.832 26.8135 263.534 27.4802 265.671 27.4802C266.965 27.4802 268.132 27.1869 269.173 26.6002C270.214 26.0135 271.029 25.1602 271.62 24.0402C272.239 22.9202 272.548 21.5735 272.548 20.0002C272.548 18.4269 272.239 17.0935 271.62 16.0002C271.029 14.8802 270.214 14.0269 269.173 13.4402C268.132 12.8269 266.965 12.5202 265.671 12.5202C263.562 12.5202 261.875 13.2002 260.609 14.5602C259.343 15.9202 258.71 17.7335 258.71 20.0002ZM291.298 30.2802C289.301 30.2802 287.515 29.8669 285.94 29.0402C284.365 28.2135 283.128 27.0402 282.228 25.5202C281.328 23.9735 280.878 22.1469 280.878 20.0402C280.878 17.9069 281.328 16.0669 282.228 14.5202C283.156 12.9735 284.407 11.7869 285.982 10.9602C287.585 10.1335 289.385 9.7202 291.382 9.7202C293.379 9.7202 295.165 10.1335 296.74 10.9602C298.343 11.7869 299.595 12.9735 300.495 14.5202C301.423 16.0402 301.887 17.8535 301.887 19.9602C301.887 22.0935 301.423 23.9335 300.495 25.4802C299.567 27.0269 298.301 28.2135 296.698 29.0402C295.095 29.8669 293.295 30.2802 291.298 30.2802ZM291.256 27.4402C292.493 27.4402 293.66 27.1869 294.757 26.6802C295.854 26.1469 296.74 25.3335 297.415 24.2402C298.118 23.1202 298.47 21.7069 298.47 20.0002C298.47 18.2669 298.132 16.8535 297.457 15.7602C296.782 14.6669 295.896 13.8669 294.8 13.3602C293.731 12.8269 292.578 12.5602 291.34 12.5602C290.103 12.5602 288.95 12.8269 287.881 13.3602C286.812 13.8669 285.94 14.6802 285.265 15.8002C284.618 16.8935 284.295 18.2935 284.295 20.0002C284.295 21.7335 284.618 23.1469 285.265 24.2402C285.912 25.3335 286.756 26.1469 287.796 26.6802C288.865 27.1869 290.018 27.4402 291.256 27.4402Z" fill="black"/>
</mask>
<g mask="url(#mask0_78_12)">
<path d="M8.79565 4.79998V3.68887H7.62378V4.79998H8.79565ZM8.79565 15.76H7.62378V16.8711H8.79565V15.76ZM19.5956 15.08L19.0836 14.0804L19.0715 14.0862L19.5956 15.08ZM21.7472 13.16L20.7197 12.6258L20.7126 12.638L20.7058 12.6504L21.7472 13.16ZM21.4519 3.11998L20.8963 4.09831L20.9045 4.10241L21.4519 3.11998ZM24.7847 6.11998L23.7593 6.65785L23.7646 6.66671L24.7847 6.11998ZM25.2909 13.4L24.195 13.0068L24.1899 13.0192L24.1854 13.0316L25.2909 13.4ZM8.79565 18.56V17.4489H7.62378V18.56H8.79565ZM8.79565 30V31.1111H9.96753V30H8.79565ZM5.42065 30H4.24878V31.1111H5.42065V30ZM5.42065 1.99998V0.888866H4.24878V1.99998H5.42065ZM18.2456 17.36L19.2444 16.7786L18.9013 16.2489H18.2456V17.36ZM26.43 30V31.1111H28.5246L27.4288 29.4186L26.43 30ZM22.5909 30L21.5852 30.5703L21.9263 31.1111H22.5909V30ZM14.6175 17.36V16.2489H12.5511L13.6118 17.9303L14.6175 17.36ZM22.4644 10.28H23.6362C23.6362 8.36957 23.0362 6.73077 21.7322 5.4943L20.9034 6.27998L20.0748 7.06565C20.852 7.80251 21.2925 8.83039 21.2925 10.28H22.4644ZM20.9034 6.27998L21.7322 5.4943C20.3705 4.20324 18.2913 3.68887 15.7987 3.68887V4.79998V5.91109C18.0313 5.91109 19.3553 6.38339 20.0748 7.06565L20.9034 6.27998ZM15.7987 4.79998V3.68887H8.79565V4.79998V5.91109H15.7987V4.79998ZM8.79565 4.79998H7.62378V15.76H8.79565H9.96753V4.79998H8.79565ZM8.79565 15.76V16.8711H15.8409V15.76V14.6489H8.79565V15.76ZM15.8409 15.76V16.8711C17.4943 16.8711 18.9445 16.6309 20.1198 16.0738L19.5956 15.08L19.0715 14.0862C18.3342 14.4358 17.2814 14.6489 15.8409 14.6489V15.76ZM19.5956 15.08L20.1076 16.0794C21.292 15.534 22.2092 14.7339 22.7886 13.6695L21.7472 13.16L20.7058 12.6504C20.3852 13.2394 19.8681 13.7192 19.0836 14.0804L19.5956 15.08ZM21.7472 13.16L22.7748 13.6942C23.3617 12.6793 23.6362 11.5301 23.6362 10.28H22.4644H21.2925C21.2925 11.2165 21.0889 11.9873 20.7197 12.6258L21.7472 13.16ZM15.7987 1.99998V3.11109C17.9825 3.11109 19.6579 3.46608 20.8963 4.09831L21.4519 3.11998L22.0074 2.14168C20.3209 1.28057 18.2276 0.888866 15.7987 0.888866V1.99998ZM21.4519 3.11998L20.9045 4.10241C22.2178 4.76025 23.151 5.61514 23.7593 6.65785L24.7847 6.11998L25.8102 5.58214C24.956 4.11818 23.6673 2.97305 21.9994 2.13754L21.4519 3.11998ZM24.7847 6.11998L23.7646 6.66671C24.3868 7.71062 24.7097 8.90571 24.7097 10.28H25.8815H27.0534C27.0534 8.56091 26.6451 6.98267 25.8049 5.57325L24.7847 6.11998ZM25.8815 10.28H24.7097C24.7097 11.244 24.5367 12.1503 24.195 13.0068L25.2909 13.4L26.387 13.7932C26.8328 12.6763 27.0534 11.5026 27.0534 10.28H25.8815ZM25.2909 13.4L24.1854 13.0316C23.8806 13.8541 23.3878 14.5931 22.6904 15.2543L23.519 16.04L24.3478 16.8256C25.2817 15.9402 25.9701 14.9192 26.3966 13.7683L25.2909 13.4ZM23.519 16.04L22.6904 15.2543C22.0111 15.8985 21.1197 16.4334 19.983 16.8405L20.3972 17.88L20.8113 18.9194C22.206 18.4199 23.3959 17.7281 24.3478 16.8256L23.519 16.04ZM20.3972 17.88L19.983 16.8405C18.8837 17.2343 17.5128 17.4489 15.8409 17.4489V18.56V19.6711C17.7129 19.6711 19.3795 19.4323 20.8113 18.9194L20.3972 17.88ZM15.8409 18.56V17.4489H8.79565V18.56V19.6711H15.8409V18.56ZM8.79565 18.56H7.62378V30H8.79565H9.96753V18.56H8.79565ZM8.79565 30V28.8889H5.42065V30V31.1111H8.79565V30ZM5.42065 30H6.59253V1.99998H5.42065H4.24878V30H5.42065ZM5.42065 1.99998V3.11109H15.7987V1.99998V0.888866H5.42065V1.99998ZM18.2456 17.36L17.2469 17.9413L25.4313 30.5813L26.43 30L27.4288 29.4186L19.2444 16.7786L18.2456 17.36ZM26.43 30V28.8889H22.5909V30V31.1111H26.43V30ZM22.5909 30L23.5967 29.4296L15.6233 16.7896L14.6175 17.36L13.6118 17.9303L21.5852 30.5703L22.5909 30ZM14.6175 17.36V18.4711H18.2456V17.36V16.2489H14.6175V17.36ZM35.0362 28.92L34.4119 29.8603L34.4201 29.8651L35.0362 28.92ZM35.0362 11.04L35.6338 11.996L35.6474 11.9881L35.0362 11.04ZM45.33 10.92L44.7527 11.887L44.7609 11.8913L45.33 10.92ZM50.055 19.08L48.8837 19.0473L48.8831 19.0636V19.08H50.055ZM49.9284 21.04V22.1511H51.0197L51.0974 21.1191L49.9284 21.04ZM33.6019 21.04V19.9289H32.3791L32.431 21.0872L33.6019 21.04ZM36.8925 26.64L36.2768 27.5853L36.2938 27.5953L36.3111 27.6046L36.8925 26.64ZM44.3597 26.56L43.8056 25.5809L43.7949 25.5864L44.3597 26.56ZM46.8487 24.04L47.284 23.0083L46.2315 22.6092L45.7758 23.5933L46.8487 24.04ZM49.5909 25.08L50.649 25.5576L51.1861 24.4882L50.0261 24.0483L49.5909 25.08ZM45.9206 28.96L46.5078 29.9216L46.521 29.9142L45.9206 28.96ZM46.5956 18.44V19.5511H47.7406L47.7672 18.4658L46.5956 18.44ZM45.794 15.4L44.7785 15.9544L44.7851 15.9652L44.7919 15.9759L45.794 15.4ZM34.6987 15.44L33.7148 14.8363L33.7101 14.8434L34.6987 15.44ZM33.644 18.44L32.4774 18.3346L32.3553 19.5511H33.644V18.44ZM40.3097 30.28V29.1689C38.54 29.1689 36.999 28.7641 35.6525 27.9749L35.0362 28.92L34.4201 29.8651C36.1673 30.8892 38.1419 31.3911 40.3097 31.3911V30.28ZM35.0362 28.92L35.6607 27.9798C34.3244 27.182 33.2681 26.0913 32.4878 24.6832L31.4503 25.2L30.4129 25.7168C31.3763 27.4553 32.7106 28.8448 34.4119 29.8603L35.0362 28.92ZM31.4503 25.2L32.4878 24.6832C31.716 23.2903 31.3144 21.6721 31.3144 19.8H30.1425H28.9706C28.9706 21.9812 29.441 23.963 30.4129 25.7168L31.4503 25.2ZM30.1425 19.8H31.3144C31.3144 18.0152 31.7126 16.4684 32.4798 15.1309L31.4503 14.6L30.4209 14.0691C29.4444 15.7715 28.9706 17.6914 28.9706 19.8H30.1425ZM31.4503 14.6L32.4798 15.1309C33.2543 13.7806 34.3032 12.7436 35.6338 11.996L35.0362 11.04L34.4388 10.0841C32.732 11.0431 31.3902 12.3793 30.4209 14.0691L31.4503 14.6ZM35.0362 11.04L35.6474 11.9881C36.9656 11.2242 38.4801 10.8311 40.2253 10.8311V9.71998V8.60887C38.0892 8.60887 36.1445 9.09574 34.4252 10.0919L35.0362 11.04ZM40.2253 9.71998V10.8311C41.9595 10.8311 43.458 11.1921 44.7527 11.887L45.33 10.92L45.9072 9.95302C44.2208 9.04789 42.316 8.60887 40.2253 8.60887V9.71998ZM45.33 10.92L44.7609 11.8913C46.094 12.5934 47.118 13.5546 47.854 14.7873L48.8737 14.24L49.8936 13.6926C48.942 12.0986 47.6035 10.8465 45.8992 9.94869L45.33 10.92ZM48.8737 14.24L47.854 14.7873C48.5803 16.004 48.9344 17.4124 48.8837 19.0473L50.055 19.08L51.2264 19.1126C51.2881 17.1209 50.8548 15.3026 49.8936 13.6926L48.8737 14.24ZM50.055 19.08H48.8831C48.8831 19.3398 48.8707 19.6155 48.845 19.9078L50.0128 20L51.1807 20.0922C51.2113 19.7444 51.2269 19.4069 51.2269 19.08H50.055ZM50.0128 20L48.845 19.9078C48.8164 20.2328 48.7879 20.5838 48.7596 20.9609L49.9284 21.04L51.0974 21.1191C51.1252 20.7495 51.153 20.4072 51.1807 20.0922L50.0128 20ZM49.9284 21.04V19.9289H33.6019V21.04V22.1511H49.9284V21.04ZM33.6019 21.04L32.431 21.0872C32.4944 22.4975 32.8616 23.7845 33.56 24.9199L34.5722 24.36L35.5844 23.8001C35.1016 23.0154 34.8219 22.0891 34.7727 20.9928L33.6019 21.04ZM34.5722 24.36L33.56 24.9199C34.2431 26.0302 35.1499 26.9254 36.2768 27.5853L36.8925 26.64L37.5083 25.6946C36.7227 25.2345 36.0826 24.6098 35.5844 23.8001L34.5722 24.36ZM36.8925 26.64L36.3111 27.6046C37.4885 28.2426 38.8031 28.5511 40.2253 28.5511V27.44V26.3289C39.1726 26.3289 38.2653 26.104 37.474 25.6753L36.8925 26.64ZM40.2253 27.44V28.5511C42.0017 28.5511 43.5858 28.2316 44.9245 27.5335L44.3597 26.56L43.7949 25.5864C42.8837 26.0616 41.7115 26.3289 40.2253 26.3289V27.44ZM44.3597 26.56L44.9138 27.5391C46.2881 26.8399 47.3059 25.8169 47.9218 24.4866L46.8487 24.04L45.7758 23.5933C45.3792 24.4498 44.7376 25.1068 43.8056 25.5809L44.3597 26.56ZM46.8487 24.04L46.4136 25.0716L49.1558 26.1116L49.5909 25.08L50.0261 24.0483L47.284 23.0083L46.8487 24.04ZM49.5909 25.08L48.5329 24.6023C47.7833 26.0948 46.7141 27.2175 45.3204 28.0058L45.9206 28.96L46.521 29.9142C48.3335 28.8891 49.711 27.4252 50.649 25.5576L49.5909 25.08ZM45.9206 28.96L45.3335 27.9984C43.9347 28.7662 42.2731 29.1689 40.3097 29.1689V30.28V31.3911C42.6212 31.3911 44.7003 30.9139 46.5078 29.9216L45.9206 28.96ZM46.5956 18.44L47.7672 18.4658C47.7999 17.1324 47.4875 15.9055 46.7962 14.8241L45.794 15.4L44.7919 15.9759C45.2256 16.6544 45.4476 17.4542 45.4241 18.4142L46.5956 18.44ZM45.794 15.4L46.8097 14.8455C46.1621 13.7792 45.2407 12.9434 44.075 12.3434L43.5159 13.32L42.9569 14.2965C43.76 14.7099 44.3573 15.2608 44.7785 15.9544L45.794 15.4ZM43.5159 13.32L44.075 12.3434C42.8941 11.7356 41.5574 11.4489 40.0987 11.4489V12.56V13.6711C41.2277 13.6711 42.1691 13.891 42.9569 14.2965L43.5159 13.32ZM40.0987 12.56V11.4489C38.7793 11.4489 37.5494 11.7483 36.4344 12.3571L37.019 13.32L37.6038 14.2829C38.345 13.8783 39.1683 13.6711 40.0987 13.6711V12.56ZM37.019 13.32L36.4344 12.3571C35.3348 12.9573 34.428 13.7912 33.7148 14.8363L34.6987 15.44L35.6826 16.0436C36.2069 15.2754 36.8471 14.696 37.6038 14.2829L37.019 13.32ZM34.6987 15.44L33.7101 14.8434C33.0124 15.883 32.6061 17.054 32.4774 18.3346L33.644 18.44L34.8106 18.5453C34.9071 17.586 35.2039 16.757 35.6874 16.0365L34.6987 15.44ZM33.644 18.44V19.5511H46.5956V18.44V17.3289H33.644V18.44ZM71.5476 14.04L71.6929 15.1425L73.3365 14.9478L72.5958 13.5431L71.5476 14.04ZM71.2101 14.08H70.0383V15.3386L71.3554 15.1825L71.2101 14.08ZM71.2101 1.19998V0.0888672H70.0383V1.19998H71.2101ZM74.3742 1.19998H75.5461V0.0888672H74.3742V1.19998ZM74.3742 30V31.1111H75.5461V30H74.3742ZM71.4633 30L70.293 30.0596L70.3527 31.1111H71.4633V30ZM71.2523 26.28L72.4224 26.2203L72.2014 22.3232L70.2245 25.7463L71.2523 26.28ZM68.3414 29.12L67.7163 28.18L67.7066 28.186L68.3414 29.12ZM58.5117 29.04L57.8888 29.9812L57.9001 29.9879L57.9116 29.9943L58.5117 29.04ZM55.1367 25.44L54.0812 25.9231L54.0885 25.9369L55.1367 25.44ZM55.1367 14.6L54.0885 14.1031L54.0848 14.1101L55.1367 14.6ZM58.5117 11L57.8974 10.0537L57.8888 10.0588L58.5117 11ZM59.2289 25.48L58.3415 26.2059L58.349 26.214L59.2289 25.48ZM70.282 24.04L69.2438 23.5244L69.2387 23.5336L69.2338 23.5431L70.282 24.04ZM70.282 16L69.2338 16.4969L69.2414 16.5112L69.2493 16.5253L70.282 16ZM67.8351 13.44L67.2164 14.3836L67.2262 14.3894L67.2362 14.395L67.8351 13.44ZM59.2289 14.56L58.3501 13.8249L58.349 13.826L59.2289 14.56ZM71.5476 14.04L71.4022 12.9374L71.0647 12.9774L71.2101 14.08L71.3554 15.1825L71.6929 15.1425L71.5476 14.04ZM71.2101 14.08H72.382V1.19998H71.2101H70.0383V14.08H71.2101ZM71.2101 1.19998V2.31109H74.3742V1.19998V0.0888672H71.2101V1.19998ZM74.3742 1.19998H73.2023V30H74.3742H75.5461V1.19998H74.3742ZM74.3742 30V28.8889H71.4633V30V31.1111H74.3742V30ZM71.4633 30L72.6334 29.9403L72.4224 26.2203L71.2523 26.28L70.0821 26.3396L70.293 30.0596L71.4633 30ZM71.2523 26.28L70.2245 25.7463C69.6856 26.6792 68.8646 27.4935 67.7163 28.18L68.3414 29.12L68.9663 30.0599C70.4054 29.1996 71.5252 28.1208 72.2802 26.8136L71.2523 26.28ZM68.3414 29.12L67.7066 28.186C66.6726 28.8178 65.332 29.1689 63.6164 29.1689V30.28V31.3911C65.6694 31.3911 67.4788 30.9689 68.9762 30.054L68.3414 29.12ZM63.6164 30.28V29.1689C61.8568 29.1689 60.3685 28.796 59.1117 28.0856L58.5117 29.04L57.9116 29.9943C59.5797 30.9373 61.4946 31.3911 63.6164 31.3911V30.28ZM58.5117 29.04L59.1344 28.0988C57.8962 27.3621 56.912 26.3221 56.1848 24.9431L55.1367 25.44L54.0885 25.9369C54.9926 27.6512 56.2583 29.0112 57.8888 29.9812L58.5117 29.04ZM55.1367 25.44L56.192 24.957C55.4956 23.5893 55.1273 21.9474 55.1273 20H53.9554H52.7836C52.7836 22.2125 53.2025 24.1974 54.0812 25.9231L55.1367 25.44ZM53.9554 20H55.1273C55.1273 18.0518 55.4959 16.4266 56.1885 15.0899L55.1367 14.6L54.0848 14.1101C53.2024 15.8133 52.7836 17.7882 52.7836 20H53.9554ZM55.1367 14.6L56.1848 15.0969C56.912 13.7179 57.8962 12.6779 59.1344 11.9412L58.5117 11L57.8888 10.0588C56.2583 11.0288 54.9926 12.3888 54.0885 14.1031L55.1367 14.6ZM58.5117 11L59.1259 11.9463C60.3805 11.2142 61.8636 10.8311 63.6164 10.8311V9.71998V8.60887C61.4878 8.60887 59.5677 9.07904 57.8974 10.0537L58.5117 11ZM63.6164 9.71998V10.8311C65.4436 10.8311 66.8633 11.2084 67.9493 11.8875L68.5945 10.96L69.2397 10.0325C67.6818 9.05825 65.7828 8.60887 63.6164 8.60887V9.71998ZM68.5945 10.96L67.9493 11.8875C69.116 12.6172 69.9532 13.5011 70.4994 14.5369L71.5476 14.04L72.5958 13.5431C71.8482 12.1255 70.7167 10.9561 69.2397 10.0325L68.5945 10.96ZM57.3726 20H56.2008C56.2008 22.4841 56.8742 24.5934 58.3415 26.2059L59.2289 25.48L60.1161 24.7542C59.1084 23.6466 58.5445 22.1025 58.5445 20H57.3726ZM59.2289 25.48L58.349 26.214C59.8417 27.8222 61.8698 28.5911 64.2914 28.5911V27.48V26.3689C62.4378 26.3689 61.091 25.8044 60.1086 24.746L59.2289 25.48ZM64.2914 27.48V28.5911C65.804 28.5911 67.1958 28.2531 68.434 27.555L67.8351 26.6L67.2362 25.645C66.3931 26.1202 65.4224 26.3689 64.2914 26.3689V27.48ZM67.8351 26.6L68.434 27.555C69.6851 26.8498 70.6486 25.8292 71.3301 24.5369L70.282 24.04L69.2338 23.5431C68.7341 24.4908 68.0665 25.1769 67.2362 25.645L67.8351 26.6ZM70.282 24.04L71.3201 24.5555C72.0456 23.2422 72.382 21.7098 72.382 20H71.2101H70.0383C70.0383 21.4369 69.7558 22.5978 69.2438 23.5244L70.282 24.04ZM71.2101 20H72.382C72.382 18.2913 72.046 16.7671 71.3145 15.4746L70.282 16L69.2493 16.5253C69.7554 17.4195 70.0383 18.562 70.0383 20H71.2101ZM70.282 16L71.3301 15.5031C70.6486 14.2108 69.6851 13.1902 68.434 12.485L67.8351 13.44L67.2362 14.395C68.0665 14.8631 68.7341 15.5492 69.2338 16.4969L70.282 16ZM67.8351 13.44L68.4538 12.4963C67.2127 11.7649 65.814 11.4089 64.2914 11.4089V12.52V13.6311C65.4125 13.6311 66.3761 13.8884 67.2164 14.3836L67.8351 13.44ZM64.2914 12.52V11.4089C61.8845 11.4089 59.8626 12.1996 58.3501 13.8249L59.2289 14.56L60.1076 15.2951C61.1264 14.2003 62.4794 13.6311 64.2914 13.6311V12.52ZM59.2289 14.56L58.349 13.826C56.8738 15.4154 56.2008 17.5171 56.2008 20H57.3726H58.5445C58.5445 17.8962 59.1089 16.3712 60.1086 15.294L59.2289 14.56ZM94.6544 22.88L95.7984 22.639L95.5001 21.3659L94.2218 21.8473L94.6544 22.88ZM95.7091 25.04L94.7507 25.6794L94.7652 25.6988L94.7803 25.7174L95.7091 25.04ZM97.9872 26.8L97.4389 27.782L97.457 27.791L97.4752 27.7994L97.9872 26.8ZM104.822 18.44L104.321 19.4446L104.333 19.4501L104.346 19.4553L104.822 18.44ZM101.404 17.24L101.73 16.1724L101.715 16.1686L101.404 17.24ZM98.0294 16.28L97.6336 17.3258L97.6503 17.3314L97.6672 17.3366L98.0294 16.28ZM95.0341 14.92L94.3912 15.8489L94.402 15.8556L94.413 15.8622L95.0341 14.92ZM93.2622 5.39998L94.2444 6.00631L94.2509 5.9965L93.2622 5.39998ZM109.04 4.31998L108.185 5.07905L108.198 5.09256L108.212 5.10566L109.04 4.31998ZM110.897 7.11998L111.313 8.15854L112.38 7.774L112.003 6.75292L110.897 7.11998ZM107.901 8.19998L106.78 8.52349L107.145 9.66127L108.318 9.23854L107.901 8.19998ZM106.762 6.43998L105.895 7.18739L105.904 7.19692L105.914 7.20626L106.762 6.43998ZM98.4091 4.99998L97.9515 3.97705L97.9394 3.98202L98.4091 4.99998ZM96.3841 11.68L95.5203 12.4308L95.5375 12.4485L95.5555 12.4656L96.3841 11.68ZM98.9154 13.2L98.4751 14.2296L98.4925 14.2364L98.5102 14.2425L98.9154 13.2ZM102.417 14.28L102.771 13.2209L102.757 13.2165L102.742 13.2125L102.417 14.28ZM105.75 15.4L105.32 16.4335L105.329 16.437L105.75 15.4ZM108.661 16.88L107.968 17.776L107.975 17.7811L107.983 17.7861L108.661 16.88ZM110.433 26.28L111.457 26.8196L111.462 26.8105L110.433 26.28ZM107.226 29.2L107.783 30.1776L107.79 30.174L107.226 29.2ZM96.8904 29.48L96.4366 30.5044L96.4459 30.5081L96.4551 30.5116L96.8904 29.48ZM91.5747 24.04L91.1421 23.0073L90.1741 23.372L90.4425 24.3263L91.5747 24.04ZM94.6544 22.88L93.5104 23.121C93.7186 24.009 94.1443 24.8623 94.7507 25.6794L95.7091 25.04L96.6675 24.4005C96.2053 23.7776 95.9278 23.191 95.7984 22.639L94.6544 22.88ZM95.7091 25.04L94.7803 25.7174C95.4614 26.5569 96.3597 27.2402 97.4389 27.782L97.9872 26.8L98.5356 25.818C97.7024 25.3998 97.082 24.9098 96.6381 24.3625L95.7091 25.04ZM97.9872 26.8L97.4752 27.7994C98.6687 28.349 100.111 28.5911 101.742 28.5911V27.48V26.3689C100.336 26.3689 99.2747 26.1576 98.4992 25.8005L97.9872 26.8ZM101.742 27.48V28.5911C104.065 28.5911 106.022 28.0784 107.369 26.8363L106.551 26.04L105.734 25.2436C104.999 25.9215 103.75 26.3689 101.742 26.3689V27.48ZM106.551 26.04L107.369 26.8363C108.622 25.6796 109.284 24.2641 109.284 22.64H108.112H106.94C106.94 23.6292 106.562 24.4803 105.734 25.2436L106.551 26.04ZM108.112 22.64H109.284C109.284 21.3916 108.925 20.2694 108.124 19.3653L107.226 20.08L106.329 20.7946C106.709 21.2239 106.94 21.8083 106.94 22.64H108.112ZM107.226 20.08L108.124 19.3653C107.397 18.5454 106.44 17.9059 105.298 17.4246L104.822 18.44L104.346 19.4553C105.229 19.8274 105.874 20.2812 106.329 20.7946L107.226 20.08ZM104.822 18.44L105.322 17.4353C104.244 16.9526 103.045 16.5328 101.73 16.1724L101.404 17.24L101.079 18.3074C102.295 18.6404 103.374 19.0206 104.321 19.4446L104.822 18.44ZM101.404 17.24L101.715 16.1686C100.608 15.8799 99.4999 15.5648 98.3917 15.2233L98.0294 16.28L97.6672 17.3366C98.8091 17.6885 99.9512 18.0134 101.094 18.3113L101.404 17.24ZM98.0294 16.28L98.4254 15.2342C97.3997 14.8851 96.4777 14.4652 95.6552 13.9778L95.0341 14.92L94.413 15.8622C95.3905 16.4414 96.4656 16.9282 97.6336 17.3258L98.0294 16.28ZM95.0341 14.92L95.6771 13.9911C94.9297 13.526 94.3405 12.934 93.8982 12.2055L92.8825 12.76L91.867 13.3144C92.4935 14.346 93.3386 15.194 94.3912 15.8489L95.0341 14.92ZM92.8825 12.76L93.8982 12.2055C93.4916 11.536 93.2529 10.6467 93.2529 9.47998H92.081H90.9091C90.9091 10.9266 91.2049 12.224 91.867 13.3144L92.8825 12.76ZM92.081 9.47998H93.2529C93.2529 8.08883 93.5986 6.94674 94.2444 6.00631L93.2622 5.39998L92.2802 4.79368C91.3511 6.14659 90.9091 7.72446 90.9091 9.47998H92.081ZM93.2622 5.39998L94.2509 5.9965C94.9097 5.015 95.8435 4.24329 97.094 3.68534L96.5951 2.67998L96.0961 1.67462C94.4778 2.39667 93.1898 3.43828 92.2736 4.80345L93.2622 5.39998ZM96.5951 2.67998L97.094 3.68534C98.3435 3.12786 99.8403 2.83109 101.615 2.83109V1.71998V0.608867C99.5654 0.608867 97.7155 0.952096 96.0961 1.67462L96.5951 2.67998ZM101.615 1.71998V2.83109C103.165 2.83109 104.465 3.04309 105.538 3.43642L105.961 2.39998L106.383 1.36354C104.982 0.850195 103.384 0.608867 101.615 0.608867V1.71998ZM105.961 2.39998L105.538 3.43642C106.63 3.8362 107.502 4.38764 108.185 5.07905L109.04 4.31998L109.896 3.56091C108.947 2.59899 107.767 1.87041 106.383 1.36354L105.961 2.39998ZM109.04 4.31998L108.212 5.10566C108.931 5.78778 109.455 6.57807 109.791 7.48704L110.897 7.11998L112.003 6.75292C111.551 5.52855 110.837 4.45218 109.869 3.5343L109.04 4.31998ZM110.897 7.11998L110.48 6.08142L107.485 7.16142L107.901 8.19998L108.318 9.23854L111.313 8.15854L110.897 7.11998ZM107.901 8.19998L109.022 7.87647C108.763 7.06666 108.274 6.33356 107.611 5.67369L106.762 6.43998L105.914 7.20626C106.376 7.6664 106.646 8.10664 106.78 8.52349L107.901 8.19998ZM106.762 6.43998L107.629 5.69257C106.938 4.97176 106.063 4.40719 105.038 3.98202L104.568 4.99998L104.099 6.01794C104.874 6.33944 105.461 6.73487 105.895 7.18739L106.762 6.43998ZM104.568 4.99998L105.038 3.98202C103.967 3.53751 102.776 3.32887 101.489 3.32887V4.43998V5.55109C102.508 5.55109 103.37 5.71578 104.099 6.01794L104.568 4.99998ZM101.489 4.43998V3.32887C100.225 3.32887 99.0403 3.53908 97.9515 3.97705L98.4091 4.99998L98.8668 6.02285C99.6343 5.71414 100.503 5.55109 101.489 5.55109V4.43998ZM98.4091 4.99998L97.9394 3.98202C96.8662 4.42721 95.9783 5.07917 95.3114 5.9444L96.2576 6.59998L97.2037 7.25556C97.6057 6.73412 98.1521 6.31941 98.8789 6.01794L98.4091 4.99998ZM96.2576 6.59998L95.3114 5.9444C94.6092 6.85551 94.2841 7.9341 94.2841 9.11998H95.456H96.6279C96.6279 8.33252 96.8373 7.73112 97.2037 7.25556L96.2576 6.59998ZM95.456 9.11998H94.2841C94.2841 10.398 94.6606 11.5415 95.5203 12.4308L96.3841 11.68L97.248 10.9292C96.8702 10.5384 96.6279 9.97528 96.6279 9.11998H95.456ZM96.3841 11.68L95.5555 12.4656C96.3355 13.2052 97.3213 13.7862 98.4751 14.2296L98.9154 13.2L99.3556 12.1703C98.4283 11.8138 97.7266 11.3814 97.2127 10.8943L96.3841 11.68ZM98.9154 13.2L98.5102 14.2425C99.609 14.6264 100.803 14.9945 102.092 15.3474L102.417 14.28L102.742 13.2125C101.499 12.8721 100.359 12.5202 99.3205 12.1574L98.9154 13.2ZM102.417 14.28L102.063 15.3391C103.192 15.6784 104.277 16.0433 105.32 16.4335L105.75 15.4L106.18 14.3664C105.085 13.9566 103.949 13.5749 102.771 13.2209L102.417 14.28ZM105.75 15.4L105.329 16.437C106.341 16.806 107.217 17.2542 107.968 17.776L108.661 16.88L109.354 15.984C108.417 15.3324 107.353 14.794 106.17 14.363L105.75 15.4ZM108.661 16.88L107.983 17.7861C108.711 18.2761 109.279 18.8821 109.699 19.6121L110.728 19.08L111.757 18.5479C111.164 17.5179 110.354 16.6572 109.339 15.9739L108.661 16.88ZM110.728 19.08L109.699 19.6121C110.089 20.2898 110.315 21.1756 110.315 22.32H111.487H112.659C112.659 20.9043 112.379 19.6302 111.757 18.5479L110.728 19.08ZM111.487 22.32H110.315C110.315 23.5503 110.011 24.6876 109.403 25.7494L110.433 26.28L111.462 26.8105C112.26 25.419 112.659 23.9163 112.659 22.32H111.487ZM110.433 26.28L109.408 25.7404C108.826 26.7343 107.929 27.5666 106.662 28.226L107.226 29.2L107.79 30.174C109.392 29.34 110.633 28.2258 111.457 26.8196L110.433 26.28ZM107.226 29.2L106.67 28.2223C105.488 28.8272 103.884 29.1689 101.784 29.1689V30.28V31.3911C104.129 31.3911 106.152 31.0128 107.783 30.1776L107.226 29.2ZM101.784 30.28V29.1689C100.044 29.1689 98.566 28.9188 97.3256 28.4483L96.8904 29.48L96.4551 30.5116C98.0272 31.1079 99.8115 31.3911 101.784 31.3911V30.28ZM96.8904 29.48L97.3442 28.4555C96.0719 27.9489 95.0661 27.289 94.2959 26.4902L93.431 27.24L92.5661 27.9898C93.596 29.0576 94.8964 29.8911 96.4366 30.5044L96.8904 29.48ZM93.431 27.24L94.2959 26.4902C93.5206 25.6862 92.9952 24.7779 92.7071 23.7536L91.5747 24.04L90.4425 24.3263C90.8294 25.7021 91.5415 26.9271 92.5661 27.9898L93.431 27.24ZM91.5747 24.04L92.0074 25.0726L95.0871 23.9126L94.6544 22.88L94.2218 21.8473L91.1421 23.0073L91.5747 24.04ZM116.938 25.52L115.913 26.0568L115.917 26.0639L116.938 25.52ZM116.938 14.52L115.92 13.9704L115.913 13.9832L116.938 14.52ZM120.693 10.96L120.134 9.98386L120.126 9.98788L120.693 10.96ZM131.451 10.96L130.884 11.9321L130.892 11.9361L131.451 10.96ZM135.205 14.52L134.18 15.0568L134.186 15.0668L134.192 15.0766L135.205 14.52ZM129.468 26.68L129.981 27.6789L129.993 27.6739L130.003 27.6686L129.468 26.68ZM132.126 24.24L131.119 23.6716L131.114 23.6786L132.126 24.24ZM129.51 13.36L128.965 14.3432L128.98 14.3513L128.997 14.3589L129.51 13.36ZM122.591 13.36L123.116 14.3538L123.127 14.3486L123.137 14.3432L122.591 13.36ZM119.976 15.8L118.959 15.2486L118.954 15.2563L119.976 15.8ZM122.507 26.68L121.95 27.6574L121.967 27.6659L121.983 27.6738L122.507 26.68ZM126.009 30.28V29.1689C124.189 29.1689 122.602 28.7938 121.219 28.0679L120.651 29.04L120.084 30.0121C121.851 30.9395 123.836 31.3911 126.009 31.3911V30.28ZM120.651 29.04L121.219 28.0679C119.839 27.3434 118.757 26.3201 117.96 24.9761L116.938 25.52L115.917 26.0639C116.921 27.7599 118.314 29.0832 120.084 30.0121L120.651 29.04ZM116.938 25.52L117.965 24.9832C117.177 23.6299 116.76 21.9951 116.76 20.04H115.589H114.417C114.417 22.2982 114.9 24.3168 115.913 26.0568L116.938 25.52ZM115.589 20.04H116.76C116.76 18.0555 117.178 16.4081 117.965 15.0568L116.938 14.52L115.913 13.9832C114.899 15.7252 114.417 17.7578 114.417 20.04H115.589ZM116.938 14.52L117.958 15.0694C118.784 13.6924 119.883 12.6555 121.261 11.9321L120.693 10.96L120.126 9.98788C118.354 10.9178 116.95 12.2541 115.92 13.9704L116.938 14.52ZM120.693 10.96L121.253 11.9361C122.669 11.2062 124.273 10.8311 126.093 10.8311V9.71998V8.60887C123.92 8.60887 121.925 9.06041 120.134 9.98386L120.693 10.96ZM126.093 9.71998V10.8311C127.914 10.8311 129.501 11.2062 130.884 11.9321L131.451 10.96L132.019 9.98788C130.252 9.06038 128.267 8.60887 126.093 8.60887V9.71998ZM131.451 10.96L130.892 11.9361C132.293 12.6592 133.385 13.6915 134.18 15.0568L135.205 14.52L136.232 13.9832C135.226 12.2551 133.814 10.9141 132.011 9.98389L131.451 10.96ZM135.205 14.52L134.192 15.0766C134.998 16.3966 135.426 18.0098 135.426 19.96H136.598H137.769C137.769 17.6969 137.27 15.6833 136.22 13.9633L135.205 14.52ZM136.598 19.96H135.426C135.426 21.939 134.997 23.5818 134.187 24.9305L135.205 25.48L136.225 26.0294C137.271 24.2849 137.769 22.2476 137.769 19.96H136.598ZM135.205 25.48L134.187 24.9305C133.364 26.3026 132.255 27.3391 130.85 28.0639L131.409 29.04L131.969 30.0161C133.77 29.0875 135.191 27.7506 136.225 26.0294L135.205 25.48ZM131.409 29.04L130.85 28.0639C129.434 28.7938 127.83 29.1689 126.009 29.1689V30.28V31.3911C128.182 31.3911 130.178 30.9395 131.969 30.0161L131.409 29.04ZM125.966 27.44V28.5511C127.38 28.5511 128.723 28.2604 129.981 27.6789L129.468 26.68L128.955 25.6811C128.021 26.1129 127.029 26.3289 125.966 26.3289V27.44ZM129.468 26.68L130.003 27.6686C131.315 27.0306 132.36 26.0612 133.137 24.8013L132.126 24.24L131.114 23.6786C130.543 24.6054 129.815 25.2626 128.934 25.6913L129.468 26.68ZM132.126 24.24L133.134 24.8083C133.973 23.471 134.352 21.8463 134.352 20H133.18H132.009C132.009 21.567 131.686 22.769 131.119 23.6716L132.126 24.24ZM133.18 20H134.352C134.352 18.139 133.991 16.5138 133.179 15.1986L132.168 15.76L131.157 16.3213C131.696 17.1929 132.009 18.3943 132.009 20H133.18ZM132.168 15.76L133.179 15.1986C132.4 13.9349 131.349 12.9729 130.023 12.3611L129.51 13.36L128.997 14.3589C129.866 14.7604 130.587 15.3984 131.157 16.3213L132.168 15.76ZM129.51 13.36L130.056 12.3768C128.815 11.7573 127.475 11.4489 126.051 11.4489V12.56V13.6711C127.103 13.6711 128.069 13.896 128.965 14.3432L129.51 13.36ZM126.051 12.56V11.4489C124.628 11.4489 123.287 11.7573 122.046 12.3768L122.591 13.36L123.137 14.3432C124.034 13.896 125 13.6711 126.051 13.6711V12.56ZM122.591 13.36L122.068 12.3662C120.764 12.9841 119.732 13.9653 118.959 15.2486L119.976 15.8L120.994 16.3512C121.571 15.3945 122.282 14.7492 123.116 14.3538L122.591 13.36ZM119.976 15.8L118.954 15.2563C118.18 16.565 117.834 18.1688 117.834 20H119.005H120.177C120.177 18.4179 120.478 17.2216 120.999 16.3436L119.976 15.8ZM119.005 20H117.834C117.834 21.8543 118.178 23.4728 118.954 24.7836L119.976 24.24L120.999 23.6963C120.48 22.8205 120.177 21.6123 120.177 20H119.005ZM119.976 24.24L118.954 24.7836C119.697 26.0381 120.692 27.0126 121.95 27.6574L122.507 26.68L123.065 25.7025C122.242 25.2806 121.55 24.6285 120.999 23.6963L119.976 24.24ZM122.507 26.68L121.983 27.6738C123.221 28.2604 124.554 28.5511 125.966 28.5511V27.44V26.3289C124.905 26.3289 123.932 26.1129 123.032 25.6862L122.507 26.68ZM142.414 9.99998V8.88887H141.242V9.99998H142.414ZM145.535 9.99998H146.707V8.88887H145.535V9.99998ZM145.535 30V31.1111H146.707V30H145.535ZM142.414 30H141.242V31.1111H142.414V30ZM145.535 2.39998L144.707 3.18566L144.72 3.19832L144.734 3.21057L145.535 2.39998ZM145.535 5.39998L144.734 4.58938L144.72 4.60164L144.707 4.6143L145.535 5.39998ZM142.414 9.99998V11.1111H145.535V9.99998V8.88887H142.414V9.99998ZM145.535 9.99998H144.364V30H145.535H146.707V9.99998H145.535ZM145.535 30V28.8889H142.414V30V31.1111H145.535V30ZM142.414 30H143.585V9.99998H142.414H141.242V30H142.414ZM144.017 5.99998V4.88887C143.651 4.88887 143.425 4.78734 143.242 4.6143L142.414 5.39998L141.585 6.18566C142.246 6.81262 143.087 7.11109 144.017 7.11109V5.99998ZM142.414 5.39998L143.242 4.6143C143.049 4.43115 142.953 4.22416 142.953 3.91998H141.781H140.609C140.609 4.78912 140.935 5.5688 141.585 6.18566L142.414 5.39998ZM141.781 3.91998H142.953C142.953 3.57395 143.059 3.35868 143.242 3.18565L142.414 2.39998L141.585 1.6143C140.923 2.24127 140.609 3.03935 140.609 3.91998H141.781ZM142.414 2.39998L143.242 3.18565C143.425 3.01261 143.651 2.91109 144.017 2.91109V1.79998V0.688866C143.087 0.688866 142.246 0.987335 141.585 1.6143L142.414 2.39998ZM144.017 1.79998V2.91109C144.293 2.91109 144.502 2.99165 144.707 3.18566L145.535 2.39998L146.364 1.6143C145.724 1.00831 144.921 0.688866 144.017 0.688866V1.79998ZM145.535 2.39998L144.734 3.21057C144.934 3.38928 145.039 3.59694 145.039 3.91998H146.21H147.382C147.382 3.01636 147.035 2.21067 146.337 1.58938L145.535 2.39998ZM146.21 3.91998H145.039C145.039 4.20061 144.946 4.40018 144.734 4.58938L145.535 5.39998L146.337 6.21058C147.024 5.59978 147.382 4.81268 147.382 3.91998H146.21ZM145.535 5.39998L144.707 4.6143C144.502 4.80831 144.293 4.88887 144.017 4.88887V5.99998V7.11109C144.921 7.11109 145.724 6.79165 146.364 6.18566L145.535 5.39998ZM152.657 1.19998V0.0888672H151.485V1.19998H152.657ZM155.821 1.19998H156.993V0.0888672H155.821V1.19998ZM155.821 30V31.1111H156.993V30H155.821ZM152.657 30H151.485V31.1111H152.657V30ZM152.657 1.19998V2.31109H155.821V1.19998V0.0888672H152.657V1.19998ZM155.821 1.19998H154.649V30H155.821H156.993V1.19998H155.821ZM155.821 30V28.8889H152.657V30V31.1111H155.821V30ZM152.657 30H153.829V1.19998H152.657H151.485V30H152.657ZM177.792 30V31.1111H178.964V30H177.792ZM174.418 30H173.246V31.1111H174.418V30ZM174.418 1.99998V0.888866H173.246V1.99998H174.418ZM178.13 1.99998L179.202 1.55191L178.894 0.888866H178.13V1.99998ZM189.099 25.6L188.026 26.0481L189.101 28.3598L190.172 26.0466L189.099 25.6ZM200.025 1.99998V0.888866H199.26L198.953 1.55336L200.025 1.99998ZM203.696 1.99998H204.867V0.888866H203.696V1.99998ZM203.696 30V31.1111H204.867V30H203.696ZM200.321 30H199.149V31.1111H200.321V30ZM200.321 8.31998H201.492L199.248 7.87325L200.321 8.31998ZM190.28 30V31.1111H191.045L191.353 30.4468L190.28 30ZM187.875 30L186.803 30.4483L187.111 31.1111H187.875V30ZM177.792 8.31998L178.865 7.87167L176.621 8.31998H177.792ZM177.792 30V28.8889H174.418V30V31.1111H177.792V30ZM174.418 30H175.589V1.99998H174.418H173.246V30H174.418ZM174.418 1.99998V3.11109H178.13V1.99998V0.888866H174.418V1.99998ZM178.13 1.99998L177.058 2.44805L188.026 26.0481L189.099 25.6L190.171 25.1519L179.202 1.55191L178.13 1.99998ZM189.099 25.6L190.172 26.0466L201.099 2.4466L200.025 1.99998L198.953 1.55336L188.026 25.1533L189.099 25.6ZM200.025 1.99998V3.11109H203.696V1.99998V0.888866H200.025V1.99998ZM203.696 1.99998H202.524V30H203.696H204.867V1.99998H203.696ZM203.696 30V28.8889H200.321V30V31.1111H203.696V30ZM200.321 30H201.492V8.31998H200.321H199.149V30H200.321ZM200.321 8.31998L199.248 7.87325L189.208 29.5532L190.28 30L191.353 30.4468L201.394 8.76671L200.321 8.31998ZM190.28 30V28.8889H187.875V30V31.1111H190.28V30ZM187.875 30L188.948 29.5516L178.865 7.87167L177.792 8.31998L176.72 8.76828L186.803 30.4483L187.875 30ZM177.792 8.31998H176.621V30H177.792H178.964V8.31998H177.792ZM223.746 30L222.577 30.0739L222.65 31.1111H223.746V30ZM223.493 26.4L224.662 26.3261L222.427 25.9385L223.493 26.4ZM220.878 29.28L221.487 30.2286L221.496 30.2235L221.505 30.2183L220.878 29.28ZM210.12 27.68L209.126 28.2689L209.137 28.2862L209.15 28.3031L210.12 27.68ZM211.259 20.56L212.018 21.4062L212.029 21.3973L211.259 20.56ZM216.996 18.56L217.114 19.6655L217.124 19.6644L216.996 18.56ZM223.493 17.88L223.621 18.9844L224.665 18.8752V17.88H223.493ZM222.185 13.6L221.432 14.4513L221.44 14.4582L221.45 14.4649L222.185 13.6ZM214.971 13.52L214.308 12.6035L214.295 12.6122L214.971 13.52ZM212.989 16.28L212.598 17.3278L213.769 17.7196L214.114 16.5883L212.989 16.28ZM210.12 15.32L208.998 14.9978L208.673 16.0142L209.73 16.3678L210.12 15.32ZM213.2 11.2L212.536 10.2834L212.528 10.2889L213.2 11.2ZM224.548 11.56L223.745 12.3701L223.755 12.3781L223.764 12.3859L224.548 11.56ZM226.657 30V31.1111H227.829V30H226.657ZM223.493 20.44H224.665V19.1924L223.357 19.3363L223.493 20.44ZM216.954 21.16L216.818 20.0563L216.814 20.0568L216.954 21.16ZM213.748 22.28L214.484 23.1443L214.494 23.1364L214.505 23.1282L213.748 22.28ZM213.706 26.76L212.951 27.6108L212.96 27.6176L212.969 27.6243L213.706 26.76ZM222.776 24.36L221.706 23.9062L221.7 23.919L222.776 24.36ZM223.746 30L224.915 29.9261L224.662 26.3261L223.493 26.4L222.324 26.4739L222.577 30.0739L223.746 30ZM223.493 26.4L222.427 25.9385C221.926 26.9779 221.202 27.7685 220.25 28.3416L220.878 29.28L221.505 30.2183C222.858 29.4048 223.878 28.2754 224.559 26.8614L223.493 26.4ZM220.878 29.28L220.267 28.3313C219.347 28.8634 218.112 29.1689 216.49 29.1689V30.28V31.3911C218.411 31.3911 220.102 31.0299 221.487 30.2286L220.878 29.28ZM216.49 30.28V29.1689C215.089 29.1689 213.967 28.9592 213.087 28.5858L212.609 29.6L212.13 30.6142C213.387 31.1474 214.853 31.3911 216.49 31.3911V30.28ZM212.609 29.6L213.087 28.5858C212.194 28.2071 211.545 27.6935 211.089 27.0569L210.12 27.68L209.15 28.3031C209.875 29.3198 210.885 30.0862 212.13 30.6142L212.609 29.6ZM210.12 27.68L211.114 27.0911C210.682 26.438 210.448 25.6482 210.448 24.68H209.276H208.104C208.104 26.0051 208.431 27.2153 209.126 28.2689L210.12 27.68ZM209.276 24.68H210.448C210.448 23.3179 210.964 22.2568 212.018 21.4062L211.259 20.56L210.498 19.7139C208.909 20.9966 208.104 22.6821 208.104 24.68H209.276ZM211.259 20.56L212.029 21.3973C213.103 20.5081 214.751 19.8921 217.114 19.6655L216.996 18.56L216.878 17.4545C214.234 17.708 212.057 18.4252 210.488 19.7226L211.259 20.56ZM216.996 18.56L217.124 19.6644L223.621 18.9844L223.493 17.88L223.364 16.7755L216.868 17.4555L216.996 18.56ZM223.493 17.88H224.665V16.28H223.493H222.321V17.88H223.493ZM223.493 16.28H224.665C224.665 14.8451 224.085 13.6256 222.92 12.7351L222.185 13.6L221.45 14.4649C222.028 14.9076 222.321 15.4749 222.321 16.28H223.493ZM222.185 13.6L222.938 12.7486C221.798 11.8414 220.321 11.4489 218.642 11.4489V12.56V13.6711C219.942 13.6711 220.828 13.9719 221.432 14.4513L222.185 13.6ZM218.642 12.56V11.4489C216.996 11.4489 215.528 11.8105 214.308 12.6035L214.971 13.52L215.634 14.4363C216.382 13.9493 217.361 13.6711 218.642 13.6711V12.56ZM214.971 13.52L214.295 12.6122C213.094 13.416 212.293 14.5613 211.862 15.9716L212.989 16.28L214.114 16.5883C214.416 15.5986 214.935 14.904 215.646 14.4278L214.971 13.52ZM212.989 16.28L213.378 15.2322L210.509 14.2722L210.12 15.32L209.73 16.3678L212.598 17.3278L212.989 16.28ZM210.12 15.32L211.241 15.6422C211.732 14.1038 212.61 12.9451 213.87 12.1111L213.2 11.2L212.528 10.2889C210.807 11.4282 209.631 13.0162 208.998 14.9978L210.12 15.32ZM213.2 11.2L213.862 12.1165C215.153 11.2778 216.754 10.8311 218.726 10.8311V9.71998V8.60887C216.366 8.60887 214.282 9.14888 212.536 10.2834L213.2 11.2ZM218.726 9.71998V10.8311C221.03 10.8311 222.647 11.3928 223.745 12.3701L224.548 11.56L225.35 10.7499C223.691 9.2739 221.427 8.60887 218.726 8.60887V9.71998ZM224.548 11.56L223.764 12.3859C224.883 13.3408 225.485 14.6596 225.485 16.48H226.657H227.829C227.829 14.1403 227.025 12.1792 225.332 10.7341L224.548 11.56ZM226.657 16.48H225.485V30H226.657H227.829V16.48H226.657ZM226.657 30V28.8889H223.746V30V31.1111H226.657V30ZM223.493 20.44L223.357 19.3363L216.818 20.0563L216.954 21.16L217.089 22.2636L223.628 21.5436L223.493 20.44ZM216.954 21.16L216.814 20.0568C215.283 20.231 213.962 20.6525 212.991 21.4318L213.748 22.28L214.505 23.1282C214.996 22.7341 215.812 22.409 217.094 22.2632L216.954 21.16ZM213.748 22.28L213.011 21.4156C211.99 22.1978 211.479 23.2692 211.479 24.52H212.651H213.823C213.823 23.9041 214.042 23.4822 214.484 23.1443L213.748 22.28ZM212.651 24.52H211.479C211.479 25.7546 211.962 26.823 212.951 27.6108L213.706 26.76L214.459 25.9092C214.042 25.577 213.823 25.152 213.823 24.52H212.651ZM213.706 26.76L212.969 27.6243C213.982 28.4008 215.323 28.7111 216.828 28.7111V27.6V26.4889C215.631 26.4889 214.891 26.2392 214.442 25.8956L213.706 26.76ZM216.828 27.6V28.7111C218.523 28.7111 220.025 28.3899 221.248 27.6606L220.625 26.72L220 25.7793C219.255 26.2234 218.225 26.4889 216.828 26.4889V27.6ZM220.625 26.72L221.248 27.6606C222.427 26.9578 223.305 25.9992 223.851 24.801L222.776 24.36L221.7 23.919C221.346 24.6941 220.79 25.3089 220 25.7793L220.625 26.72ZM222.776 24.36L223.845 24.8138C224.394 23.6495 224.665 22.4006 224.665 21.08H223.493H222.321C222.321 22.106 222.113 23.0438 221.706 23.9062L222.776 24.36ZM223.493 21.08H224.665V20.44H223.493H222.321V21.08H223.493ZM232.83 9.99998V8.88887H231.658V9.99998H232.83ZM235.741 9.99998L236.911 9.93748L236.848 8.88887H235.741V9.99998ZM235.909 12.84L234.74 12.9024L234.941 16.2972L236.892 13.4446L235.909 12.84ZM238.567 10.56L239.101 11.5486L239.112 11.5435L239.123 11.5383L238.567 10.56ZM246.625 10.72L246.035 11.6805L246.045 11.6854L246.054 11.6902L246.625 10.72ZM249.451 13.64L248.399 14.1288L248.404 14.1369L249.451 13.64ZM250.464 30V31.1111H251.636V30H250.464ZM247.3 30H246.128V31.1111H247.3V30ZM245.866 14.12L244.953 14.8166L244.962 14.8282L244.973 14.8395L245.866 14.12ZM237.512 14.2L236.624 13.4752L236.614 13.4868L237.512 14.2ZM235.994 30V31.1111H237.166V30H235.994ZM232.83 30H231.658V31.1111H232.83V30ZM232.83 9.99998V11.1111H235.741V9.99998V8.88887H232.83V9.99998ZM235.741 9.99998L234.571 10.0625L234.74 12.9024L235.909 12.84L237.08 12.7775L236.911 9.93748L235.741 9.99998ZM235.909 12.84L236.892 13.4446C237.457 12.6199 238.189 11.9928 239.101 11.5486L238.567 10.56L238.033 9.57129C236.752 10.1938 235.712 11.0867 234.926 12.2353L235.909 12.84ZM238.567 10.56L239.123 11.5383C240.021 11.0795 241.104 10.8311 242.406 10.8311V9.71998V8.60887C240.783 8.60887 239.307 8.92048 238.012 9.58168L238.567 10.56ZM242.406 9.71998V10.8311C243.834 10.8311 245.03 11.1261 246.035 11.6805L246.625 10.72L247.214 9.75941C245.801 8.98048 244.185 8.60887 242.406 8.60887V9.71998ZM246.625 10.72L246.054 11.6902C247.033 12.2081 247.818 13.0023 248.399 14.1288L249.451 13.64L250.504 13.1512C249.736 11.6643 248.636 10.5118 247.196 9.74976L246.625 10.72ZM249.451 13.64L248.404 14.1369C248.973 15.2173 249.292 16.6468 249.292 18.48H250.464H251.636C251.636 16.4199 251.28 14.6226 250.5 13.1431L249.451 13.64ZM250.464 18.48H249.292V30H250.464H251.636V18.48H250.464ZM250.464 30V28.8889H247.3V30V31.1111H250.464V30ZM247.3 30H248.472V18.84H247.3H246.128V30H247.3ZM247.3 18.84H248.472C248.472 16.6204 247.964 14.7456 246.759 13.4004L245.866 14.12L244.973 14.8395C245.679 15.6276 246.128 16.8995 246.128 18.84H247.3ZM245.866 14.12L246.778 13.4233C245.583 12.0155 243.865 11.3689 241.816 11.3689V12.48V13.5911C243.311 13.5911 244.292 14.0378 244.953 14.8166L245.866 14.12ZM241.816 12.48V11.3689C239.701 11.3689 237.921 12.046 236.624 13.4752L237.512 14.2L238.401 14.9246C239.185 14.0605 240.273 13.5911 241.816 13.5911V12.48ZM237.512 14.2L236.614 13.4868C235.355 14.912 234.822 16.9043 234.822 19.28H235.994H237.166C237.166 17.1756 237.645 15.7813 238.411 14.9132L237.512 14.2ZM235.994 19.28H234.822V30H235.994H237.166V19.28H235.994ZM235.994 30V28.8889H232.83V30V31.1111H235.994V30ZM232.83 30H234.001V9.99998H232.83H231.658V30H232.83ZM272.801 9.99998V8.88887H271.691L271.632 9.94032L272.801 9.99998ZM275.712 9.99998H276.884V8.88887H275.712V9.99998ZM273.982 32.6L272.991 32.0072L272.987 32.0136L273.982 32.6ZM268.962 36.6L268.494 35.5814L268.483 35.5862L268.962 36.6ZM260.946 38L259.792 38.1903L259.961 39.1111H260.946V38ZM260.44 35.24L260.424 34.129L259.05 34.1474L259.286 35.4303L260.44 35.24ZM269.468 32.88L268.756 31.9983L268.748 32.0042L269.468 32.88ZM272.548 25.88L272.833 24.8021L271.376 24.4569V25.88H272.548ZM272.885 25.96L273.924 26.4748L274.614 25.2242L273.17 24.8821L272.885 25.96ZM269.975 29L270.63 29.9214L270.637 29.9168L270.644 29.9121L269.975 29ZM264.954 30.28V31.3912L264.971 31.391L264.954 30.28ZM259.85 29.04L259.227 29.9812L259.238 29.9879L259.25 29.9943L259.85 29.04ZM256.475 25.44L255.42 25.9231L255.427 25.9369L256.475 25.44ZM256.475 14.6L255.427 14.1031L255.423 14.1101L256.475 14.6ZM259.85 11L259.235 10.0537L259.227 10.0588L259.85 11ZM268.329 10.28L267.894 11.3116L267.907 11.3168L267.921 11.3215L268.329 10.28ZM270.86 11.72L270.067 12.5376L270.076 12.546L270.087 12.5541L270.86 11.72ZM272.59 13.72L271.573 14.2712L273.548 17.5468L273.761 13.7796L272.59 13.72ZM260.567 25.48L259.68 26.2058L259.688 26.2146L259.696 26.2233L260.567 25.48ZM271.62 24.04L270.582 23.5244L270.577 23.5336L270.572 23.5431L271.62 24.04ZM271.62 16L270.572 16.4969L270.579 16.5112L270.587 16.5253L271.62 16ZM269.173 13.44L268.554 14.3836L268.565 14.3894L268.574 14.395L269.173 13.44ZM272.801 9.99998V11.1111H275.712V9.99998V8.88887H272.801V9.99998ZM275.712 9.99998H274.54V26.32H275.712H276.884V9.99998H275.712ZM275.712 26.32H274.54C274.54 28.6053 274.005 30.4836 272.991 32.0072L273.982 32.6L274.974 33.1928C276.266 31.2496 276.884 28.9413 276.884 26.32H275.712ZM273.982 32.6L272.987 32.0136C271.971 33.564 270.491 34.7559 268.494 35.5814L268.962 36.6L269.431 37.6185C271.82 36.6308 273.687 35.156 274.978 33.1863L273.982 32.6ZM268.962 36.6L268.483 35.5862C266.479 36.4388 263.98 36.8889 260.946 36.8889V38V39.1111C264.214 39.1111 267.059 38.6279 269.442 37.6138L268.962 36.6ZM260.946 38L262.101 37.8097L261.594 35.0496L260.44 35.24L259.286 35.4303L259.792 38.1903L260.946 38ZM260.44 35.24L260.457 36.351C264.552 36.2959 267.855 35.4849 270.19 33.7558L269.468 32.88L268.748 32.0042C266.977 33.3151 264.26 34.0774 260.424 34.129L260.44 35.24ZM269.468 32.88L270.182 33.7615C272.576 32.0199 273.72 29.4778 273.72 26.32H272.548H271.376C271.376 28.9222 270.467 30.7533 268.756 31.9983L269.468 32.88ZM272.548 26.32H273.72V25.88H272.548H271.376V26.32H272.548ZM272.548 25.88L272.264 26.9579L272.602 27.0379L272.885 25.96L273.17 24.8821L272.833 24.8021L272.548 25.88ZM272.885 25.96L271.847 25.4452C271.299 26.4404 270.464 27.3235 269.305 28.0879L269.975 29L270.644 29.9121C272.072 28.9698 273.18 27.8262 273.924 26.4748L272.885 25.96ZM269.975 29L269.319 28.0785C268.266 28.7518 266.835 29.1443 264.939 29.169L264.954 30.28L264.971 31.391C267.181 31.3623 269.096 30.9015 270.63 29.9214L269.975 29ZM264.954 30.28V29.1689C263.195 29.1689 261.707 28.796 260.45 28.0856L259.85 29.04L259.25 29.9943C260.918 30.9373 262.833 31.3912 264.954 31.3912V30.28ZM259.85 29.04L260.473 28.0988C259.234 27.3621 258.25 26.3221 257.523 24.9431L256.475 25.44L255.427 25.9369C256.33 27.6512 257.596 29.0112 259.227 29.9812L259.85 29.04ZM256.475 25.44L257.53 24.957C256.834 23.5893 256.465 21.9474 256.465 20H255.293H254.121C254.121 22.2125 254.541 24.1974 255.42 25.9231L256.475 25.44ZM255.293 20H256.465C256.465 18.0518 256.834 16.4266 257.527 15.0899L256.475 14.6L255.423 14.1101C254.541 15.8133 254.121 17.7882 254.121 20H255.293ZM256.475 14.6L257.523 15.0969C258.25 13.7179 259.234 12.6779 260.473 11.9412L259.85 11L259.227 10.0588C257.596 11.0288 256.33 12.3888 255.427 14.1031L256.475 14.6ZM259.85 11L260.464 11.9463C261.719 11.2142 263.202 10.8311 264.954 10.8311V9.71998V8.60887C262.826 8.60887 260.907 9.07904 259.235 10.0537L259.85 11ZM264.954 9.71998V10.8311C266.099 10.8311 267.072 10.9999 267.894 11.3116L268.329 10.28L268.765 9.24834C267.618 8.8134 266.341 8.60887 264.954 8.60887V9.71998ZM268.329 10.28L267.921 11.3215C268.777 11.623 269.487 12.0312 270.067 12.5376L270.86 11.72L271.654 10.9023C270.829 10.1821 269.85 9.63028 268.737 9.23839L268.329 10.28ZM270.86 11.72L270.087 12.5541C270.696 13.0625 271.189 13.6344 271.573 14.2712L272.59 13.72L273.607 13.1688C273.092 12.3122 272.432 11.5508 271.635 10.8859L270.86 11.72ZM272.59 13.72L273.761 13.7796L273.972 10.0596L272.801 9.99998L271.632 9.94032L271.421 13.6603L272.59 13.72ZM258.71 20H257.539C257.539 22.4841 258.212 24.5933 259.68 26.2058L260.567 25.48L261.454 24.7542C260.446 23.6466 259.882 22.1025 259.882 20H258.71ZM260.567 25.48L259.696 26.2233C261.214 27.8224 263.25 28.5911 265.671 28.5911V27.48V26.3689C263.819 26.3689 262.451 25.8042 261.439 24.7366L260.567 25.48ZM265.671 27.48V28.5911C267.161 28.5911 268.538 28.2509 269.772 27.555L269.173 26.6L268.574 25.645C267.727 26.1224 266.769 26.3689 265.671 26.3689V27.48ZM269.173 26.6L269.772 27.555C271.023 26.8498 271.987 25.8292 272.669 24.5369L271.62 24.04L270.572 23.5431C270.072 24.4908 269.405 25.1769 268.574 25.645L269.173 26.6ZM271.62 24.04L272.658 24.5555C273.384 23.2422 273.72 21.7098 273.72 20H272.548H271.376C271.376 21.4369 271.094 22.5978 270.582 23.5244L271.62 24.04ZM272.548 20H273.72C273.72 18.2913 273.385 16.7671 272.652 15.4746L271.62 16L270.587 16.5253C271.094 17.4195 271.376 18.562 271.376 20H272.548ZM271.62 16L272.669 15.5031C271.987 14.2108 271.023 13.1902 269.772 12.485L269.173 13.44L268.574 14.395C269.405 14.8631 270.072 15.5492 270.572 16.4969L271.62 16ZM269.173 13.44L269.792 12.4963C268.555 11.7673 267.171 11.4089 265.671 11.4089V12.52V13.6311C266.76 13.6311 267.71 13.886 268.554 14.3836L269.173 13.44ZM265.671 12.52V11.4089C263.264 11.4089 261.243 12.1996 259.73 13.8249L260.609 14.56L261.488 15.2951C262.506 14.2003 263.86 13.6311 265.671 13.6311V12.52ZM260.609 14.56L259.73 13.8249C258.232 15.4349 257.539 17.5326 257.539 20H258.71H259.882C259.882 17.934 260.455 16.4051 261.488 15.2951L260.609 14.56ZM282.228 25.52L281.202 26.0568L281.206 26.0639L282.228 25.52ZM282.228 14.52L281.209 13.9704L281.202 13.9832L282.228 14.52ZM285.982 10.96L285.422 9.98386L285.415 9.98788L285.982 10.96ZM296.74 10.96L296.173 11.9321L296.181 11.9361L296.74 10.96ZM300.495 14.52L299.469 15.0568L299.475 15.0668L299.481 15.0766L300.495 14.52ZM294.757 26.68L295.271 27.6789L295.281 27.6739L295.293 27.6686L294.757 26.68ZM297.415 24.24L296.409 23.6716L296.404 23.6786L297.415 24.24ZM294.8 13.36L294.255 14.3432L294.27 14.3513L294.286 14.3589L294.8 13.36ZM287.881 13.36L288.405 14.3538L288.416 14.3486L288.427 14.3432L287.881 13.36ZM285.265 15.8L284.248 15.2486L284.243 15.2563L285.265 15.8ZM287.796 26.68L287.24 27.6574L287.256 27.6659L287.273 27.6738L287.796 26.68ZM291.298 30.28V29.1689C289.478 29.1689 287.891 28.7938 286.509 28.0679L285.94 29.04L285.373 30.0121C287.14 30.9395 289.125 31.3911 291.298 31.3911V30.28ZM285.94 29.04L286.509 28.0679C285.128 27.3434 284.045 26.3201 283.25 24.9761L282.228 25.52L281.206 26.0639C282.21 27.7599 283.603 29.0832 285.373 30.0121L285.94 29.04ZM282.228 25.52L283.254 24.9832C282.467 23.6299 282.05 21.9951 282.05 20.04H280.878H279.706C279.706 22.2982 280.19 24.3168 281.202 26.0568L282.228 25.52ZM280.878 20.04H282.05C282.05 18.0555 282.468 16.4081 283.254 15.0568L282.228 14.52L281.202 13.9832C280.189 15.7252 279.706 17.7578 279.706 20.04H280.878ZM282.228 14.52L283.246 15.0694C284.073 13.6924 285.171 12.6555 286.551 11.9321L285.982 10.96L285.415 9.98788C283.643 10.9178 282.239 12.2541 281.209 13.9704L282.228 14.52ZM285.982 10.96L286.542 11.9361C287.958 11.2062 289.562 10.8311 291.382 10.8311V9.71998V8.60887C289.209 8.60887 287.213 9.06041 285.422 9.98386L285.982 10.96ZM291.382 9.71998V10.8311C293.203 10.8311 294.79 11.2062 296.173 11.9321L296.74 10.96L297.308 9.98788C295.541 9.06038 293.556 8.60887 291.382 8.60887V9.71998ZM296.74 10.96L296.181 11.9361C297.583 12.6592 298.675 13.6915 299.469 15.0568L300.495 14.52L301.521 13.9832C300.516 12.2551 299.104 10.9141 297.3 9.98389L296.74 10.96ZM300.495 14.52L299.481 15.0766C300.287 16.3966 300.715 18.0098 300.715 19.96H301.887H303.059C303.059 17.6969 302.56 15.6833 301.51 13.9633L300.495 14.52ZM301.887 19.96H300.715C300.715 21.939 300.286 23.5818 299.476 24.9305L300.495 25.48L301.513 26.0294C302.561 24.2849 303.059 22.2476 303.059 19.96H301.887ZM300.495 25.48L299.476 24.9305C298.654 26.3026 297.544 27.3391 296.139 28.0639L296.698 29.04L297.258 30.0161C299.059 29.0875 300.481 27.7506 301.513 26.0294L300.495 25.48ZM296.698 29.04L296.139 28.0639C294.723 28.7938 293.118 29.1689 291.298 29.1689V30.28V31.3911C293.472 31.3911 295.467 30.9395 297.258 30.0161L296.698 29.04ZM291.256 27.44V28.5511C292.669 28.5511 294.012 28.2604 295.271 27.6789L294.757 26.68L294.244 25.6811C293.31 26.1129 292.319 26.3289 291.256 26.3289V27.44ZM294.757 26.68L295.293 27.6686C296.604 27.0306 297.65 26.0612 298.426 24.8013L297.415 24.24L296.404 23.6786C295.832 24.6054 295.104 25.2626 294.223 25.6913L294.757 26.68ZM297.415 24.24L298.423 24.8083C299.262 23.471 299.642 21.8463 299.642 20H298.47H297.298C297.298 21.567 296.976 22.769 296.409 23.6716L297.415 24.24ZM298.47 20H299.642C299.642 18.139 299.281 16.5138 298.469 15.1986L297.457 15.76L296.446 16.3213C296.984 17.1929 297.298 18.3943 297.298 20H298.47ZM297.457 15.76L298.469 15.1986C297.688 13.9349 296.638 12.9729 295.313 12.3611L294.8 13.36L294.286 14.3589C295.156 14.7604 295.876 15.3984 296.446 16.3213L297.457 15.76ZM294.8 13.36L295.346 12.3768C294.105 11.7573 292.763 11.4489 291.34 11.4489V12.56V13.6711C292.392 13.6711 293.358 13.896 294.255 14.3432L294.8 13.36ZM291.34 12.56V11.4489C289.917 11.4489 288.577 11.7573 287.336 12.3768L287.881 13.36L288.427 14.3432C289.323 13.896 290.288 13.6711 291.34 13.6711V12.56ZM287.881 13.36L287.357 12.3662C286.054 12.9841 285.021 13.9653 284.248 15.2486L285.265 15.8L286.284 16.3512C286.86 15.3945 287.571 14.7492 288.405 14.3538L287.881 13.36ZM285.265 15.8L284.243 15.2563C283.469 16.565 283.123 18.1688 283.123 20H284.295H285.467C285.467 18.4179 285.768 17.2216 286.287 16.3436L285.265 15.8ZM284.295 20H283.123C283.123 21.8543 283.467 23.4728 284.243 24.7836L285.265 24.24L286.287 23.6963C285.769 22.8205 285.467 21.6123 285.467 20H284.295ZM285.265 24.24L284.243 24.7836C284.985 26.0381 285.981 27.0126 287.24 27.6574L287.796 26.68L288.354 25.7025C287.53 25.2806 286.839 24.6285 286.287 23.6963L285.265 24.24ZM287.796 26.68L287.273 27.6738C288.51 28.2604 289.844 28.5511 291.256 28.5511V27.44V26.3289C290.194 26.3289 289.221 26.1129 288.32 25.6862L287.796 26.68Z" fill="black"/>
</g>
</g>
<defs>
<filter id="filter0_d_78_12" x="0.248779" y="0.0888672" width="306.81" height="47.0225" filterUnits="userSpaceOnUse" color-interpolation-filters="sRGB">
<feFlood flood-opacity="0" result="BackgroundImageFix"/>
<feColorMatrix in="SourceAlpha" type="matrix" values="0 0 0 0 0 0 0 0 0 0 0 0 0 0 0 0 0 0 127 0" result="hardAlpha"/>
<feOffset dy="4"/>
<feGaussianBlur stdDeviation="2"/>
<feComposite in2="hardAlpha" operator="out"/>
<feColorMatrix type="matrix" values="0 0 0 0 0 0 0 0 0 0 0 0 0 0 0 0 0 0 0.25 0"/>
<feBlend mode="normal" in2="BackgroundImageFix" result="effect1_dropShadow_78_12"/>
<feBlend mode="normal" in="SourceGraphic" in2="effect1_dropShadow_78_12" result="shape"/>
</filter>
</defs>
</svg>
