<svg width="38" height="38" viewBox="0 0 38 38" fill="none" xmlns="http://www.w3.org/2000/svg">
<path d="M32.6972 30.828C39.767 23.7687 39.767 12.3538 32.6972 5.2945C25.6274 -1.76483 14.1956 -1.76483 7.12582 5.2945C1.60296 10.8092 0.278573 19.3569 3.8121 26.3065C2.5414 30.0569 0.608398 35.9572 0.608398 36.0134L0 37.9996L11.4881 34.0833C18.448 37.7217 27.1186 36.3986 32.6972 30.828ZM11.5441 11.0871L13.091 9.54256C13.6432 8.9911 14.5278 8.9911 15.0801 9.54256L17.0692 11.5287C17.6215 12.0802 17.6215 12.9634 17.0692 13.5149L15.8546 14.7277C15.8546 14.7277 15.5224 16.4919 18.2838 19.2493L18.5599 19.525C21.3213 22.3384 23.0882 21.9506 23.0882 21.9506L24.3028 20.7378C24.8551 20.1863 25.7396 20.1863 26.2919 20.7378L28.281 22.724C28.8333 23.2754 28.8333 24.1587 28.281 24.7101L26.732 26.2525C26.1798 26.804 25.4074 27.0797 24.579 26.9699C22.756 26.6941 19.2223 25.7571 15.8523 22.3384L15.4101 21.8968C11.9863 18.532 11.0479 15.0035 10.7717 13.1831C10.7157 12.4657 10.9358 11.6386 11.5441 11.0871Z" fill="black"/>
</svg>
